<svg xmlns="http://www.w3.org/2000/svg" viewBox="0 0 448.14 128.53"><defs><style>.cls-1{fill:#221f1f;}.cls-2{fill:#86c4eb;}</style></defs><title>Asset 6</title><g id="logoi_2"><path class="cls-1" d="M2.83 57.44a9.66 9.66 0 0 0 0 13.66l21.62 21.61 14.55-14.56 11.38 11.38-14.56 14.56 21.62 21.62a9.65 9.65 0 0 0 13.65 0l21.62-21.62-68.26-68.26z" id="path3008"/><path class="cls-2" d="M35.82 24.44l68.26 68.27 21.62-21.61a9.66 9.66 0 0 0 0-13.66l-54.61-54.61a9.65 9.65 0 0 0-13.65 0z" id="path7"/><path class="cls-1" d="M185.13 64.9h-18.78v17.49h21v5.25h-27.35v-48.51h26.26v5.26h-19.91v15.33h18.78zM199.09 44.46v8.34h9.07v4.83h-9.07v18.79c0 4.31 1.23 6.76 4.75 6.76a11.77 11.77 0 0 0 3.67-.43l.29 4.82a17.37 17.37 0 0 1-5.61.86 9 9 0 0 1-6.84-2.66c-1.73-1.94-2.45-5-2.45-9.14v-19h-5.39v-4.83h5.39v-6.47zM242.77 69.94c0 12.88-9 18.49-17.34 18.49-9.36 0-16.7-6.91-16.7-17.92 0-11.58 7.7-18.42 17.28-18.42 9.99 0 16.76 7.27 16.76 17.85zm-27.56.36c0 7.62 4.32 13.38 10.51 13.38 6 0 10.58-5.68 10.58-13.53 0-5.9-3-13.31-10.44-13.31s-10.65 6.9-10.65 13.46zM247.16 62.24c0-3.67-.07-6.55-.29-9.44h5.62l.36 5.77h.15a12.9 12.9 0 0 1 11.51-6.48c4.82 0 12.31 2.88 12.31 14.82v20.73h-6.33v-20.08c0-5.61-2.09-10.29-8.06-10.29a9.14 9.14 0 0 0-8.5 6.47 9.42 9.42 0 0 0-.43 3v20.9h-6.33zM283.71 39.85a81.36 81.36 0 0 1 13.29-1.07c9 0 15.39 2.15 19.64 6s6.91 9.58 6.91 17.42-2.52 14.39-7 18.85-12.09 7-21.52 7a100.31 100.31 0 0 1-11.37-.57zm6.29 42.9a51.35 51.35 0 0 0 6.34.29c13.43-.04 20.66-7.49 20.66-20.59.08-11.44-6.4-18.71-19.64-18.71a35.66 35.66 0 0 0-7.35.65zM334.88 43a3.79 3.79 0 0 1-4 3.89 3.73 3.73 0 0 1-3.88-3.89 3.86 3.86 0 0 1 4-4 3.81 3.81 0 0 1 3.88 4zm-7.06 44.62v-34.82h6.34v34.84zM370.86 82.53c0 8.06-1.66 12.88-5 16s-8.34 4.17-12.74 4.17c-4.17 0-8.78-1-11.58-2.88l1.58-4.89a19 19 0 0 0 10.22 2.81c6.48 0 11.23-3.39 11.23-12.24v-3.83h-.15c-1.87 3.23-5.68 5.83-11.08 5.83-8.63 0-14.83-7.34-14.83-17 0-11.8 7.71-18.42 15.77-18.42 6.05 0 9.28 3.09 10.86 6h.15l.21-5.26h5.62c-.22 2.46-.29 5.34-.29 9.51zm-6.34-16a8.3 8.3 0 0 0-.36-2.81 9 9 0 0 0-8.85-6.72c-6 0-10.36 5.11-10.36 13.17 0 6.84 3.53 12.52 10.29 12.52a9.12 9.12 0 0 0 8.76-6.49 11 11 0 0 0 .5-3.39zM384.31 43a3.78 3.78 0 0 1-4 3.89 3.72 3.72 0 0 1-3.84-3.89 3.86 3.86 0 0 1 4-4 3.8 3.8 0 0 1 3.84 4zm-7.05 44.62v-34.82h6.33v34.84zM398.13 44.46v8.34h9.07v4.83h-9.07v18.79c0 4.31 1.22 6.76 4.75 6.76a11.82 11.82 0 0 0 3.67-.43l.28 4.82a17.28 17.28 0 0 1-5.61.86 9 9 0 0 1-6.84-2.66c-1.72-1.94-2.44-5-2.44-9.14v-19h-5.4v-4.83h5.4v-6.47zM435.18 79.29a58.46 58.46 0 0 0 .51 8.35h-5.69l-.51-4.39h-.21a13 13 0 0 1-10.65 5.18c-7.06 0-10.66-5-10.66-10 0-8.42 7.49-13 20.94-13v-.72c0-2.8-.78-8-7.91-8a16.75 16.75 0 0 0-9.14 2.59l-1.44-4.25a22.57 22.57 0 0 1 11.52-3c10.65 0 13.23 7.27 13.23 14.18zm-6.11-9.42c-6.91-.15-14.75 1.07-14.75 7.83 0 4.18 2.73 6.06 5.9 6.06a8.79 8.79 0 0 0 8.56-5.84 7 7 0 0 0 .29-2zM441.81 36.54h6.33v51.1h-6.33z"/></g></svg>