<svg xmlns="http://www.w3.org/2000/svg" viewBox="0 0 536.11 119.34"><defs><style>.cls-1{fill:#5bc6e5;}.cls-2{fill:#3457a5;}</style></defs><title>Asset 7</title><g id="logoi"><path class="cls-1" d="M117.25 0h3.45c11.24.72 20.58 11.42 19.59 22.67a21.44 21.44 0 0 1-17 19.55 21.44 21.44 0 0 1 16 15.36c1 3.66.6 7.49.69 11.24-.07 7.3.14 14.62-.11 21.92-.62 7.62-8.23 12.57-15.35 12.88h-28.1v12.39a3.79 3.79 0 0 1-2.52 3.33h-.9a23.88 23.88 0 0 1-4.51-2.93q-7.92-5.77-15.81-11.54c-.79-.53-1.52-1.35-2.55-1.26h-55.71a14 14 0 0 1-7.78-2.3c-4-2.66-6-7.45-6.65-12.06v-21c.68-6.53 6.19-11.85 12.57-12.94a14.81 14.81 0 0 1-.46-28.77c6.87-2 14.63 1.9 17.42 8.42a17.25 17.25 0 0 1 6.33-13.54 17 17 0 0 1 26.38 6.62 18.81 18.81 0 0 1 35.4-7.75c.28-10.43 9.23-19.59 19.62-20.29zm-32 47.35a19.93 19.93 0 0 1 12.83 10.65 21.54 21.54 0 0 1 16.3-15.81 21.73 21.73 0 0 1-14.63-11.47 19 19 0 0 1-14.49 16.63zm-21.75-11.35a17.15 17.15 0 0 1-14.09 15.4 17.59 17.59 0 0 1 13.07 10 20.1 20.1 0 0 1 14.27-14 19.07 19.07 0 0 1-13.25-11.4zm-32.8 4.71a15 15 0 0 1-11.7 14.71 15.79 15.79 0 0 1 11 8.93 17.33 17.33 0 0 1 13.77-12.92 17.28 17.28 0 0 1-13.07-10.72z"/><path class="cls-2" d="M177.17 23.5q13.38-.12 26.77 0c.09 1.12.08 2.25.06 3.37-3.82.15-7.64 0-11.46.07v29.35c-1.23.09-2.76.52-3.83-.15-.1-9.73 0-19.47 0-29.2h-11.25c-.78-.94-.27-2.35-.29-3.44zM209.13 23.5c1.27-.07 2.53-.06 3.8 0 .24 8.11 0 16.23.12 24.35 6.76-6.79 13.33-13.75 20.08-20.56v-3.73a14.52 14.52 0 0 1 3.84 0v32.76a19.7 19.7 0 0 1-3.84 0v-24.18c-6.77 6.86-13.34 13.86-20.13 20.63a14.28 14.28 0 0 1-.2 3.58 16 16 0 0 1-3.73 0c-.07-10.93-.07-21.9.06-32.85zM245.55 23.46c1.32.1 2.79-.26 4 .2 4.22 6.7 8.18 13.57 12.35 20.31 4.26-6.8 8.2-13.81 12.59-20.52h3.89c.24 10.55 0 21.12.11 31.68.29 2-2.35 1-3.56 1.29a8.09 8.09 0 0 1-.32-3.36v-22.58c-3.71 5.86-7.18 11.87-10.9 17.72-1.09.57-3.18.77-3.81-.61-3.53-5.75-7-11.52-10.62-17.24-.05 8.63 0 17.27 0 25.9a12.21 12.21 0 0 1-3.72.06c-.05-10.92-.1-21.89-.01-32.85zM176.6 64.15c2.4-1.59 6-2.16 8.31-.07a4.22 4.22 0 0 1-1.24 6.92 4.48 4.48 0 0 1 2.25 7c-2.09 2.57-6 2.42-8.83 1.16-1-.34-.2-1.34.13-1.92a6.26 6.26 0 0 0 6.19.59 3.14 3.14 0 0 0 .37-5.07c-1.55-1.2-3.61-.63-5.4-.79v-1.64c1.62-.12 3.45.33 4.89-.63a2.88 2.88 0 0 0-.42-4.81c-1.84-.92-3.93-.1-5.56.87-.23-.59-.47-1.09-.69-1.61zM194.17 62.91h2.15c2.22 5.57 4.39 11.16 6.59 16.74h-2.14c-.53-1.37-1.08-2.73-1.62-4.1h-7.86c-.54 1.37-1 2.77-1.62 4.13h-2c2.05-5.68 4.33-11.18 6.5-16.77zm1.07 2.43c-1.13 2.88-2.33 5.73-3.41 8.62h6.82c-1.13-2.87-2.25-5.75-3.41-8.62zM212 65.37c2.94-3.16 8.09-3.39 11.65-1.19-.25.57-.51 1.14-.77 1.71-3.45-2.39-8.9-1.53-10.61 2.55a6.85 6.85 0 0 0 3.23 9.1 8.21 8.21 0 0 0 7.43-.78l.8 1.67a10 10 0 0 1-11.23-.43 8.72 8.72 0 0 1-.5-12.63zM230.54 63.09a8.85 8.85 0 0 1 11 5.89 8.6 8.6 0 0 1-5.85 10.57 8.83 8.83 0 0 1-11-5.74 8.67 8.67 0 0 1 5.85-10.72zm1.25 1.66a6.71 6.71 0 1 0 7.94 6.66 6.69 6.69 0 0 0-7.94-6.66zM244.52 62.88h1.87c.05 5 0 9.94 0 14.92h9.66v-14.9a13.9 13.9 0 0 1 2 0c.05 5 0 9.91 0 14.86.85 0 1.71 0 2.56.07 0 2.52.07 5 0 7.55h-2c-.11-1.94 0-3.87-.05-5.8h-14.18c.13-5.53.03-11.11.14-16.7zM262.54 63a12.49 12.49 0 0 1 2 0v12.34c3.46-3.39 6.77-6.93 10.16-10.39v-1.88c.68 0 1.36 0 2 .05 0 5.55.06 11.11 0 16.66a15 15 0 0 1-2 0v-12.23c-3.46 3.4-6.79 6.93-10.17 10.41v1.75h-2c-.06-5.62-.01-11.18.01-16.71zM287 63a12.62 12.62 0 0 1 2 0v10.53a6.47 6.47 0 0 1-1.86 5 6.83 6.83 0 0 1-8.85-.26c.32-.52.64-1 1-1.54 2.1 2.29 6.74 2 7.51-1.38.42-4.17.08-8.28.2-12.35zM297 62.91h2.16c2.16 5.57 4.43 11.1 6.51 16.69-.69 0-1.37.06-2.06.07-.56-1.37-1.08-2.75-1.62-4.12h-7.86l-1.63 4.13h-2c2.06-5.68 4.37-11.19 6.5-16.77zm-2.34 11h6.83q-1.69-4.3-3.43-8.58c-1.12 2.91-2.31 5.75-3.39 8.67zM308.31 62.93c4-.08 8 0 12.05 0 .05 5.57 0 11.15 0 16.73h-1.94v-14.81h-8.11c-.11 5 .28 10.47-2.64 14.8a17 17 0 0 1-1.75 0c2.77-5.11 2.31-11.11 2.39-16.72zM323.76 62.92h1.86c.1 2.5 0 5 .05 7.48h10c0-2.49 0-5 .05-7.48h1.87c.05 5.57 0 11.15 0 16.73h-1.94v-7.47h-10v7.47h-1.93c.03-5.58-.02-11.16.04-16.73zM347 62.94a8.81 8.81 0 0 1 10.49 6.35 8.59 8.59 0 0 1-6.14 10.33c-4.64 1.39-10.07-1.71-10.94-6.53a8.66 8.66 0 0 1 6.59-10.15zm.76 1.78a6.72 6.72 0 1 0 3.24 13c3.68-1.05 5.56-5.51 4.13-9a6.69 6.69 0 0 0-7.36-4zM364.35 63c.82 0 2.12-.46 2.49.58l4.87 9.45q2.27-4.73 4.5-9.46c.33-1 1.58-.53 2.35-.62-1 2.9-2.64 5.56-3.86 8.37-1.36 2.47-2.13 5.42-4.43 7.23a6.8 6.8 0 0 1-4.79 1.15v-1.61a5.16 5.16 0 0 0 5.2-3c-2.1-4.09-4.42-8.01-6.33-12.09zM380.09 62.88h1.87c.05 2.48 0 5 0 7.44h1.85c2-2.34 4.09-4.67 6.13-7 .64-.83 1.79-.41 2.67-.4-2.24 2.85-4.8 5.43-7.14 8.2 2.39 2.85 5 5.53 7.3 8.43a9 9 0 0 1-2.44-.06c-2.26-2.41-4.33-5-6.61-7.38h-1.72v7.48h-2c.08-5.54 0-11.12.09-16.71zM395.66 63.42c0-.67.81-.51 1.26-.54 3.65.08 7.3-.11 10.94.1.05 2.46 0 4.93 0 7.38 2.79.17 5.78-.49 8.38.79 3.05 1.59 2.71 6.81-.54 8s-6.62.31-9.91.52v-14.8h-8.11c0 4.7.23 9.75-2.09 14-.42 1.06-1.63.78-2.53.78 3.26-4.78 2.45-10.8 2.6-16.23zm12.23 8.63v6c2.27-.1 4.67.32 6.84-.51s2.1-4.57-.19-5.24-4.44-.12-6.65-.25zM418.47 62.93c.71 0 1.61-.25 2.22.16 1.82 3.24 3.36 6.63 5.15 9.89 1.48-3.16 3-6.3 4.49-9.47.33-1 1.58-.51 2.35-.61-1.77 4.4-4.07 8.59-6.08 12.88a6.63 6.63 0 0 1-7 3.87v-1.65a5 5 0 0 0 5.17-3c-2.09-4-4.41-7.94-6.3-12.07zM433.83 62.92h2c.3 2.56-.47 5.29.5 7.72 1.79 2.39 5.26 1.23 7.65.51v-8.17a12.49 12.49 0 0 1 2 0c0 5.56.06 11.14 0 16.7h-2c-.1-2.2 0-4.4-.06-6.6-2.83.85-6.45 1.58-8.84-.64-2.08-2.7-1.08-6.39-1.25-9.52zM449.25 63.66c-.1-1.15 1.32-.69 2-.73.1 4.12 0 8.25.05 12.39l10.18-10.45v-1.85h1.92v16.74c-.65 0-1.29 0-1.93-.06v-12.3c-3.32 3.56-6.86 6.91-10.13 10.51 0 .57 0 1.15-.05 1.72h-2c-.07-5.33-.03-10.63-.04-15.97zM466.8 62.92c3 .15 6.34-.6 9.16.84a4.16 4.16 0 0 1-.28 7.18c3.77.3 4.94 5.91 1.75 7.77s-7.13.6-10.65.93c.01-5.57-.03-11.15.02-16.72zm1.92 1.65v5.79c1.83-.1 3.73.26 5.52-.25 2.15-.72 2.2-4.2.16-5.1-1.79-.78-3.8-.33-5.68-.44zm0 7.48v6c2.34-.11 4.82.33 7-.56a2.94 2.94 0 0 0-.56-5.32c-2.08-.34-4.28-.04-6.44-.12zM486.68 62.91h2.15c2.18 5.58 4.4 11.15 6.56 16.74h-2.08c-.6-1.36-1.14-2.73-1.65-4.12h-7.87c-.54 1.38-1.06 2.75-1.63 4.11h-2c2.08-5.64 4.34-11.15 6.52-16.73zm-2.4 11.09h6.88c-1.13-2.86-2.25-5.73-3.41-8.58-1.21 2.81-2.31 5.7-3.47 8.58zM496.91 62.91h1.95v7.41h9.92c0-2.38-.08-4.78 0-7.16.43-.61 1.33-.2 2-.28.09 2.49 0 5 .05 7.44 3 .19 6.29-.61 9 1.12 2.67 2 1.85 6.87-1.42 7.76-3.11.83-6.4.24-9.58.38-.06-2.52 0-5.05 0-7.57h-9.92v7.58h-2c-.15-5.51-.19-11.11 0-16.68zm13.95 9.14v6c2.31-.1 4.73.31 6.93-.51s2.14-4.31 0-5.13-4.64-.21-6.93-.36zM524 62.93c4-.07 8.05 0 12.07 0v1.77h-10.01v5.66h8.6c0 .59 0 1.19.05 1.78h-8.65v5.67h10.05v1.78h-12.11v-16.66zM202.41 89.52a9.4 9.4 0 0 1 11.67-1.14c-.28.55-.57 1.1-.86 1.65a8.15 8.15 0 0 0-6.2-1.12 6.81 6.81 0 0 0-5 7 6.58 6.58 0 0 0 5.94 6.35 8.8 8.8 0 0 0 5.33-1.32c.28.56.55 1.14.81 1.71a10.14 10.14 0 0 1-11.18-.42 8.75 8.75 0 0 1-.51-12.71zM341.65 89.83c2.9-3.4 8.29-3.84 12-1.46-.26.55-.52 1.11-.79 1.66-3-1.91-7.34-1.88-9.65 1.07a7 7 0 0 0 .87 9.74c2.52 2 6.21 1.72 8.84.07l.8 1.66c-3.43 2.19-8.41 2.13-11.49-.66a8.72 8.72 0 0 1-.58-12.08zM394.72 87.06a8.8 8.8 0 0 1 9.64 4.71 8.54 8.54 0 0 1-1.84 10 8.91 8.91 0 0 1-12.14-.07 8.49 8.49 0 0 1-1.93-9.7 8.71 8.71 0 0 1 6.27-4.94zm-.26 2c-5 1.38-6.28 8.84-2 11.81 3.63 3 9.76.69 10.51-4 1.22-4.69-3.83-9.53-8.51-7.8zM177.33 87.11h2c.1 4.08 0 8.16.05 12.24 3.4-3.37 6.67-6.86 10-10.27 0-.66 0-1.32.07-2h2q.06 8.37 0 16.73h-2c-.1-4 0-8.09-.05-12.14-3.26 3.21-6.4 6.53-9.58 9.81-.79.57-.15 1.72-.77 2.33a12.63 12.63 0 0 1-1.74 0l.02-16.7zM216.42 87.12h2.09c2.1 3.47 4.18 6.94 6.27 10.41l6.29-10.4h2.15q.1 8.34 0 16.68h-2c-.11-4.35 0-8.7-.06-13.06-1.94 3-3.68 6.14-5.65 9.13-.59-.1-1.44.16-1.76-.49-1.85-2.91-3.58-5.91-5.46-8.8v13.23h-1.83c-.16-5.52-.08-11.11-.04-16.7zM234.68 103.86c2.1-5.65 4.38-11.24 6.6-16.84.83 0 2.15-.41 2.39.73 2.05 5.37 4.29 10.68 6.24 16.1h-2c-.77-1.28-1-2.94-1.84-4.09-2.53-.09-5.08-.09-7.61 0-.86 1.16-1.12 2.78-1.84 4.08zm4.22-5.79h6.8c-1.13-2.83-2.23-5.68-3.42-8.48-1.19 2.79-2.28 5.64-3.38 8.48zM251.48 87.12h2c.1 2.45 0 4.89.05 7.34h9.92v-7.33h2c.09 2.43 0 4.87.05 7.3 2.83.11 5.87-.38 8.51.92 2.9 1.63 2.52 6.7-.64 7.84s-6.63.46-9.92.63c-.05-2.57 0-5.14 0-7.71h-9.95c-.05 2.58.1 5.16-.09 7.74h-1.93c-.07-5.56-.08-11.15 0-16.73zm14 9v6c2.22-.14 4.56.38 6.71-.38a2.89 2.89 0 0 0 .22-5.16c-2.19-.84-4.62-.29-6.92-.44zM278.63 87.12h12c0 .6 0 1.19-.05 1.79h-10v5.66h8.73c-.05.56.19 1.24-.14 1.72-2.86.19-5.73 0-8.59.08v5.67h10c0 .59 0 1.19-.05 1.79h-11.9c-.03-5.56.01-11.13 0-16.71zM292.93 87.12h1.91c.05 2.44 0 4.88 0 7.32h9.91c.06-2.45-.09-4.9.09-7.34h1.94c.1 2.45 0 4.89.05 7.34 2.85.15 6-.45 8.59 1 3 1.67 2.47 6.82-.78 7.89s-6.55.37-9.8.57c-.18-2.57 0-5.15-.09-7.73h-9.91v7.72h-1.91zm13.93 9v6c2.26-.13 4.63.38 6.81-.4a2.86 2.86 0 0 0 .25-5.09c-2.21-.94-4.72-.32-7.06-.49zM320 87.12h11.95v1.78h-9.9v5.66h8.64v1.78c-2.87.05-5.74 0-8.61 0v5.67h9.92v1.78c-4 .05-7.95 0-11.92 0q-.14-8.29-.08-16.67zM356 87.13h2c.06 4.09 0 8.18 0 12.27q5.2-5.14 10.2-10.4v-1.82h1.93v16.73h-1.91v-12.27c-3.3 3.24-6.45 6.62-9.69 9.91-.71.57-.43 1.56-.52 2.35h-2q-.09-8.41-.01-16.77zM373.48 87.12h7.48a5.31 5.31 0 0 1 4.85 3.65 5.54 5.54 0 0 1-3.24 7c-2.33.62-4.77.37-7.15.43 0 1.88 0 3.77-.05 5.66h-1.89c-.01-5.57 0-11.16 0-16.74zm1.94 1.81v7.47c2.19-.11 4.49.3 6.62-.41 2.8-1.21 2.65-5.95-.32-6.87-2.06-.44-4.21-.12-6.3-.19zM407.78 87.14c.81.09 2-.42 2.45.55 2 3.28 4 6.55 5.92 9.83 2.11-3.47 4.2-6.94 6.32-10.4h2.08c.14 5.58.14 11.18 0 16.76h-1.9c-.19-4.34 0-8.69-.11-13-1.83 2.83-3.49 5.77-5.31 8.61-.34.64-1.17.37-1.75.47-2-3-3.78-6.22-5.78-9.26-.05 4.41.05 8.82-.05 13.23h-1.87q-.06-8.43 0-16.79zM426 103.84c2.21-5.63 4.36-11.29 6.69-16.87.78.11 2.08-.33 2.31.73 2.07 5.39 4.28 10.73 6.29 16.14h-2.07c-.59-1.35-1.08-2.73-1.63-4.1h-7.9c-.54 1.37-1.09 2.75-1.65 4.11-.66.02-1.35.01-2.04-.01zm4.26-5.78h6.79c-1.12-2.83-2.24-5.67-3.4-8.49-1.19 2.8-2.28 5.65-3.37 8.49zM442.83 87.13h2c.1 5 0 9.94 0 14.91h8.63c.06-5-.11-10 .09-14.95h1.93c.11 5 0 10 .05 14.95h8.76c0-5-.06-10 0-14.95h2c0 5.58.12 11.17 0 16.75h-23.48q-.04-8.34.02-16.71zM467.84 87.16c4.58-.09 9.16 0 13.75 0 0 .6 0 1.19-.06 1.79h-5.85c-.05 5 .05 10-.05 14.95h-1.87c-.05-5 0-9.95 0-14.92-2 0-3.94 0-5.9-.05-.03-.62-.03-1.19-.02-1.77zM483.06 87.16c3 .15 6.21-.62 9 .65s2.84 5.91 0 7.27c3.66.46 4.82 5.82 1.72 7.75-3.26 1.84-7.2.79-10.76 1q-.02-8.34.04-16.67zm2 1.64v5.66c1.71 0 3.42.11 5.13-.06 2.26-.4 2.69-3.87.85-5s-3.99-.4-5.96-.6zm0 7.34v6c2.34-.17 4.85.46 7.05-.53a2.91 2.91 0 0 0-.24-5.15c-2.17-.65-4.53-.19-6.79-.32zM496.46 103.87c2.09-5.68 4.37-11.29 6.63-16.9l2.07.06c2.16 5.61 4.43 11.18 6.54 16.8h-2.08c-.55-1.37-1.06-2.75-1.64-4.11h-7.88c-.94 1.7-.88 5.02-3.64 4.15zm4.19-5.81h6.82c-1.13-2.86-2.26-5.72-3.43-8.56-1.13 2.87-2.24 5.72-3.39 8.56z"/></g></svg>