<svg xmlns="http://www.w3.org/2000/svg" xmlns:xlink="http://www.w3.org/1999/xlink" viewBox="0 0 277.91 102.11"><defs><style>.cls-1{fill:#414042;}.cls-2{fill:url(#radial-gradient);}.cls-3{fill:url(#radial-gradient-2);}</style><radialGradient id="radial-gradient" cx="87.3" cy="50.05" r="107.67" gradientUnits="userSpaceOnUse"><stop offset="0" stop-color="#ef4136"/><stop offset="1" stop-color="#be1e2d"/></radialGradient><radialGradient id="radial-gradient-2" cx="87.63" cy="51.05" r="86.32" xlink:href="#radial-gradient"/></defs><title>Asset 1</title><g id="Layer_1-2"><path class="cls-1" d="M228.45 38.42a7.89 7.89 0 0 1 2.55 3.58 12.94 12.94 0 0 1 .62 4.17v6.94l-17.62 1.22v3.53a5.1 5.1 0 0 0 1.29 3.76 6 6 0 0 0 3.43 1.68 13 13 0 0 0 4.79-.23 21.33 21.33 0 0 0 5.33-2l1.16 2.52a16.65 16.65 0 0 1-3.46 1.62 22.48 22.48 0 0 1-3.81.92 17.45 17.45 0 0 1-3.81.18 12.15 12.15 0 0 1-3.47-.7 6 6 0 0 1-3.54-2.8 9.28 9.28 0 0 1-1.2-5l.11-12.21a9.53 9.53 0 0 1 .43-3.18 8.48 8.48 0 0 1 1.23-2.4 7.59 7.59 0 0 1 1.78-1.71 13.57 13.57 0 0 1 2.14-1.21 10.43 10.43 0 0 1 2.92-.7 18 18 0 0 1 3.36 0 14.61 14.61 0 0 1 3.21.63 7.32 7.32 0 0 1 2.56 1.39zm0 7.29a6.75 6.75 0 0 0-.79-3.3 5.58 5.58 0 0 0-1.85-2 6.58 6.58 0 0 0-2.3-.92 11.33 11.33 0 0 0-2.05-.23 13 13 0 0 0-2.51.26 6.4 6.4 0 0 0-2.36 1 5.89 5.89 0 0 0-1.79 2 6.06 6.06 0 0 0-.7 3.21l-.1 5.73h.23l14.13-1zM250.85 38.42a7.94 7.94 0 0 1 2.55 3.58 12.94 12.94 0 0 1 .62 4.17l-.02 6.89-17.59 1.27v3.53a5.18 5.18 0 0 0 1.29 3.76 6 6 0 0 0 3.43 1.68 13 13 0 0 0 4.79-.23 21.33 21.33 0 0 0 5.33-2l1.21 2.49a16.65 16.65 0 0 1-3.46 1.65 22.25 22.25 0 0 1-3.81.92 17.45 17.45 0 0 1-3.81.18 12.22 12.22 0 0 1-3.47-.7 6 6 0 0 1-3.54-2.8 9.28 9.28 0 0 1-1.2-5l.11-12.21a9.52 9.52 0 0 1 .44-3.18 8.21 8.21 0 0 1 1.22-2.4 7.59 7.59 0 0 1 1.78-1.71 14 14 0 0 1 2.14-1.21 10.51 10.51 0 0 1 2.92-.7 18 18 0 0 1 3.36 0 14.61 14.61 0 0 1 3.21.63 7.37 7.37 0 0 1 2.5 1.39zm0 7.29a6.65 6.65 0 0 0-.78-3.3 5.76 5.76 0 0 0-1.85-2 6.65 6.65 0 0 0-2.3-.92 11.52 11.52 0 0 0-2.06-.23 13 13 0 0 0-2.51.26 6.4 6.4 0 0 0-2.36 1 6 6 0 0 0-1.79 2 6.06 6.06 0 0 0-.7 3.21l-.1 5.73h.23l14.13-1zM259.07 65.61h-3.24l.17-21.06.06-7.87h2.94a2.62 2.62 0 0 0 0 1.16q0 .46.06.84c0 .25.05.4.05.43h.17a22.81 22.81 0 0 1 2.69-1.3 21.18 21.18 0 0 1 3.51-1.07 19.81 19.81 0 0 1 3.84-.43 10.23 10.23 0 0 1 3.7.61 8.42 8.42 0 0 1 3.56 2.83 9.41 9.41 0 0 1 1.31 5.5l-.15 20.36h-3.24l.16-20.36a6.75 6.75 0 0 0-.66-3.45 4.27 4.27 0 0 0-1.81-1.7 6.08 6.08 0 0 0-2.37-.58q-1.28-.06-2.31-.06a8.37 8.37 0 0 0-2.44.44c-.94.28-1.84.58-2.71.89-.5.2-1 .41-1.51.64l-1.56.69z"/><path class="cls-2" d="M131.8 40.71a7.89 7.89 0 0 0-1.71-2.09 9.37 9.37 0 0 0-2.09-1.36 14.5 14.5 0 0 0-10.65 0 10.72 10.72 0 0 0-2.17 1.36 7.91 7.91 0 0 0-1.78 2.09 10.81 10.81 0 0 0-1.21 3 17.8 17.8 0 0 0-.45 4.13l-.26 29.74 2.92.64q.06-3.65.11-7.35c0-2.47.06-4.92.11-7.35 0-.11 0-.17.11-.17h.12a7.42 7.42 0 0 0 3.54 2.25 14.45 14.45 0 0 0 4 .58c3.59 0 6.28-.9 8.07-2.72s2.71-4.41 2.76-7.81l.06-7.81a18.68 18.68 0 0 0-.38-4.13 10.5 10.5 0 0 0-1.1-3zm-1.8 15.36c0 2.58-.76 4.43-2.13 5.55a8.25 8.25 0 0 1-5.37 1.68 8.43 8.43 0 0 1-5.5-1.74c-1.44-1.15-2.15-3-2.14-5.49l.08-8.62a9.76 9.76 0 0 1 .7-3.82 7.21 7.21 0 0 1 1.77-2.52 7 7 0 0 1 2.46-1.39 9.08 9.08 0 0 1 2.76-.43 8.58 8.58 0 0 1 2.71.43 6.62 6.62 0 0 1 2.37 1.39 6.79 6.79 0 0 1 1.7 2.55 9.84 9.84 0 0 1 .64 3.84zm23.41 0q-.12 4-2.15 5.61a8.37 8.37 0 0 1-5.34 1.62 11.22 11.22 0 0 1-3.06-.4 6.45 6.45 0 0 1-2.4-1.28 5.94 5.94 0 0 1-1.6-2.23 8.05 8.05 0 0 1-.55-3.32l.08-19.39h-3.13l-.15 19q-.06 5.45 2.72 8c1.85 1.7 4.53 2.54 8 2.54a15.33 15.33 0 0 0 4.17-.55 10.78 10.78 0 0 0 3.6-1.76l.05-.06s.12.08.13.23l.24 1.56h2.54l.25-28.93h-3.13zm39-3v-6.94a12.94 12.94 0 0 0-.61-4.17 8 8 0 0 0-2.56-3.53 7.37 7.37 0 0 0-2.55-1.36 14.49 14.49 0 0 0-3.21-.63 17.85 17.85 0 0 0-3.35 0 10.43 10.43 0 0 0-2.92.7 14.13 14.13 0 0 0-2.15 1.21 7.75 7.75 0 0 0-1.77 1.71 8.23 8.23 0 0 0-1.23 2.4 9.78 9.78 0 0 0-.44 3.18l-.1 12.21a9.19 9.19 0 0 0 1.2 5 6 6 0 0 0 3.53 2.8 12.29 12.29 0 0 0 3.48.7 17.51 17.51 0 0 0 3.81-.18 22.14 22.14 0 0 0 3.8-.92c.46-.15.88-.34 1.3-.52 0-.3 0-.57.07-.81a8.12 8.12 0 0 1 .39-1.75 8 8 0 0 1 .41-1 21.38 21.38 0 0 1-5.24 1.93 13 13 0 0 1-4.79.23 6 6 0 0 1-3.43-1.68 5.1 5.1 0 0 1-1.29-3.76v-3.53zm-17.51-7.35a6.16 6.16 0 0 1 .7-3.21 6 6 0 0 1 1.8-2 6.4 6.4 0 0 1 2.36-1 12.87 12.87 0 0 1 2.5-.26 11.34 11.34 0 0 1 2.06.23 6.58 6.58 0 0 1 2.3.92 5.76 5.76 0 0 1 1.85 2 6.65 6.65 0 0 1 .78 3.3l-.08 4.75-14.13 1h-.23zm-1.93-8.84a15.22 15.22 0 0 0-5.45-.39 10.29 10.29 0 0 0-5.52 2.51.17.17 0 0 1-.11.06q-.18 0-.18-.12l-.21-2.26h-2.78l-.24 28.93h3.24l.18-21a3.72 3.72 0 0 1 .63-2 5.56 5.56 0 0 1 1.72-1.65 9.54 9.54 0 0 1 2.51-1.1 10.53 10.53 0 0 1 3-.41 8.76 8.76 0 0 1 1 .08 12 12 0 0 1 .65-1 10.33 10.33 0 0 1 1.53-1.66z"/><path class="cls-1" d="M199.51 50.48q-3.18 4.79-6.21 9.46-.65 1.05-1.05 1.74a6.78 6.78 0 0 0-.61 1.3 5.35 5.35 0 0 0-.27 1.19l-.08 1.44h19.4a8.88 8.88 0 0 1-1.06-1.45 11.36 11.36 0 0 1-.72-1.49h-13c-.31 0-.32-.22 0-.64q3.52-5.67 6.7-10.51c2.11-3.21 4.18-6.39 6.21-9.51.43-.7.76-1.26 1-1.71a6.36 6.36 0 0 0 .5-1.21 5.26 5.26 0 0 0 .18-1.1l.06-1.36h-19.78a11.25 11.25 0 0 1 2.36 2.72h13c.19 0 .28 0 .27.17a1.76 1.76 0 0 1-.18.46q-3.54 5.73-6.72 10.5z"/><path class="cls-3" d="M35.26 11.83l26.9 23.84 12.24 4.1a16.29 16.29 0 0 1 1.15-1.2l-4.07-12.2-20.75-23.47a5 5 0 0 0-7-.53c-.46.33-1 .66-1.46 1l-1.59 1.12c-.54.38-1.1.78-1.67 1.2l-1.78 1.31-1.87 1.41c-.64.49-2.04 1.7-.1 3.42zm-26.89 28.17l49.4 10.1 12.78-2.6c.11-.5.24-1 .39-1.48l-9.75-8.64-39.19-13.16c-3.34-1.12-4.37.25-5 .9s-1.27 1.4-1.89 2.1-1.22 1.4-1.81 2.09-1.16 1.38-1.71 2.06-1.1 1.35-1.62 2-1 1.31-1.51 1.95-1 1.26-1.41 1.86-1.19 2.28 1.32 2.82zm15-17.3l34.18 11.43-23.67-21a3.12 3.12 0 0 0-4.53.12c-.69.59-1.39 1.19-2.09 1.81s-1.4 1.25-2.1 1.89-1.4 1.3-2.1 2l-.87.84c-.4.37-1.74 1.91 1.13 2.88zm69.02 11.9l.42-.46c-.2-.26-.38-.5-.59-.76-.52-.66-1.06-1.33-1.61-2l-1.16-1.38.83 4.12a16.21 16.21 0 0 1 2.11.48zm-11.19-13.6c-.69-.68-1.38-1.36-2.07-2s-1.4-1.33-2.1-2l-2.1-1.89c-.7-.62-1.4-1.22-2.09-1.81s-1.38-1.16-2.06-1.72-3.05-2.58-1.78 1.28c4 12.58 4.18 12.53 4.18 12.53l8.38 9.48c.6-.21 1.2-.39 1.82-.54 0 0 1-4.76 1.3-6.35a4.92 4.92 0 0 0-1.44-5c-.68-.65-1.36-1.34-2.04-1.98zm-11.26.8s-3.13-9.38-4.15-12.5a7.8 7.8 0 0 0-2.61-3.61l-1.68-1.2-1.57-1.11-1.46-1a13.35 13.35 0 0 0-5.61-2.32c-.77-.12-2.34-.27-.54 1.77zm-8.75 43l9.74-8.63c-.15-.49-.27-1-.38-1.48l-12.78-2.69-49.4 10.14c-2.51.51-1.79 2.17-1.33 2.78s.96 1.23 1.41 1.86 1 1.29 1.51 2 1.06 1.33 1.62 2 1.13 1.36 1.71 2.05 1.19 1.4 1.81 2.09l1.9 2.08s1.63 2 5 .9zm29.09 3.2l-.83 4.11 1.16-1.39c.55-.68 1.09-1.35 1.61-2 .21-.26.39-.5.59-.76l-.41-.46a18.2 18.2 0 0 1-2.12.5zm-38 32.26c-1.8 2-.23 1.89.54 1.77a13.35 13.35 0 0 0 5.61-2.31l1.46-1 1.57-1.11 1.68-1.2a7.8 7.8 0 0 0 2.61-3.61c1-3.12 4.15-12.45 4.15-12.45zm23.27-36.71a16.57 16.57 0 0 1-1.16-1.21l-12.23 4.1-26.9 23.84c-1.94 1.72-.54 2.93.1 3.42l1.87 1.41 1.77 1.31c.57.42 1.13.82 1.67 1.2l1.58 1.11 1.46 1a5 5 0 0 0 7-.53l20.77-23.46zm-52.23 15.89c-2.87 1-1.53 2.51-1.13 2.9l.87.84c.7.67 1.4 1.32 2.1 2s1.4 1.27 2.1 1.89 1.4 1.22 2.09 1.81a3.12 3.12 0 0 0 4.53.11l23.67-20.99zm60-11.65c-.62-.15-1.22-.34-1.82-.55l-8.38 9.48s-.12-.05-4.12 12.53c-1.25 3.88 1.12 1.88 1.8 1.32s1.37-1.13 2.06-1.72 1.39-1.19 2.09-1.8 1.4-1.25 2.1-1.9 1.4-1.3 2.1-2 1.38-1.34 2.07-2 1.36-1.38 2-2.07a4.92 4.92 0 0 0 1.44-5c-.31-1.54-1.3-6.29-1.3-6.29zm-30.32-16.7h-.14l-47.53-9.75a1.43 1.43 0 0 0-1.66.56l-.26.37c-.35.51-.7 1-1 1.46a13.74 13.74 0 0 0-2.41 7.33 13.76 13.76 0 0 0 2.4 7.33l1 1.46.26.37a1.46 1.46 0 0 0 1.66.56l47.54-9.72z"/><path class="cls-1" d="M102.18 50.63a14.74 14.74 0 0 0-3-8.45l-5.22-6.51-1.37 1.55a14.75 14.75 0 0 0-3.83-.89l-1.76-8.82h-.3l-1.84 9a14.2 14.2 0 0 0-3.5 1.06l-6-6.76-.36.19 2.89 8.68a15.44 15.44 0 0 0-2.37 2.48l-8.52-2.87-.24.43 6.82 6.05a14.88 14.88 0 0 0-.82 3.2l-8.9 1.81v.53l8.89 1.82a14.9 14.9 0 0 0 .83 3.2l-6.83 6 .23.44 8.59-2.87a15.53 15.53 0 0 0 2.37 2.49l-2.94 8.72.35.21 6-6.75a14.68 14.68 0 0 0 3.5 1.08l1.82 8.95h.33l1.81-8.83a14.36 14.36 0 0 0 3.82-.88l1.37 1.58 5.31-6.63a14.72 14.72 0 0 0 2.87-9.21zm-14.47 11.89a11.46 11.46 0 1 1 11.13-11.8 11.46 11.46 0 0 1-11.13 11.8z"/></g></svg>