<?xml version="1.0" encoding="utf-8"?>
<!-- Generator: Adobe Illustrator 21.0.0, SVG Export Plug-In . SVG Version: 6.00 Build 0)  -->
<svg version="1.1" id="Layer_1" xmlns="http://www.w3.org/2000/svg" xmlns:xlink="http://www.w3.org/1999/xlink" x="0px" y="0px"
	 viewBox="0 0 283.5 283.5" style="enable-background:new 0 0 283.5 283.5;" xml:space="preserve">
<style type="text/css">
	.st0{fill:#ED1C24;}
	.st1{fill:#585EAA;}
	.st2{fill:#00AAA5;}
	.st3{fill:#39B54A;}
	.st4{fill:#8DC63F;}
	.st5{fill:#00A651;}
	.st6{fill:#6C8CC7;}
	.st7{fill:#8ED8F8;}
	.st8{fill:#007DC5;}
	.st9{fill:#0054A6;}
	.st10{fill:#5DA9DD;}
	.st11{fill:#009444;}
	.st12{fill:#F15A29;}
	.st13{fill:#BE1E2D;}
	.st14{fill:#F7941D;}
</style>
<g>
	<path class="st0" d="M117.4,174.2v0.7l-3.3,5.1h2.4l0.1-0.8h1l-0.1,1.9h-5.1v-0.7l3.3-5h-2.2l-0.1,0.8h-1l0.1-1.9H117.4z"/>
	<path class="st0" d="M125.2,174.2v0.8l-0.7,0.1v5.8h-1.4l-2.7-4.6l0,0v3.6l0.7,0.1v0.8h-2.8v-0.8l0.7-0.1v-4.9l-0.7-0.1v-0.8h0.7
		h1.4l2.7,4.6l0,0v-3.6l-0.7-0.1v-0.8h2.1H125.2z"/>
	<path class="st0" d="M125.2,180.2l0.5-0.1l2.1-5.9h1.4l2,5.9l0.5,0.1v0.8h-2.3v-0.8l0.5-0.1l-0.3-0.9h-2.2l-0.3,0.9l0.5,0.1v0.8
		h-2.3V180.2z M127.6,178.2h1.6l-0.8-2.4h0L127.6,178.2z"/>
	<path class="st0" d="M139.3,174.2v0.8l-0.7,0.1v5.8h-1.4l-2.7-4.6l0,0v3.6l0.7,0.1v0.8h-2.8v-0.8l0.7-0.1v-4.9l-0.7-0.1v-0.8h0.7
		h1.4l2.7,4.6l0,0v-3.6l-0.7-0.1v-0.8h2.1H139.3z"/>
	<path class="st0" d="M145.1,174.2v0.8l-0.7,0.1v3.8c0,0.7-0.2,1.2-0.6,1.6c-0.4,0.4-1,0.6-1.6,0.6c-0.7,0-1.3-0.2-1.7-0.5
		c-0.4-0.3-0.6-0.9-0.6-1.5l0,0h1.3c0,0.4,0.1,0.6,0.3,0.8c0.2,0.2,0.4,0.2,0.7,0.2c0.3,0,0.5-0.1,0.6-0.3c0.2-0.2,0.3-0.5,0.3-0.8
		v-3.8l-0.7-0.1v-0.8h2.1H145.1z"/>
	<path class="st0" d="M150.1,178h-2.3v1.9h2.2l0.1-0.8h1v1.9h-5.4v-0.8l0.7-0.1v-4.9l-0.7-0.1v-0.8h0.7h4.6v1.9h-1l-0.1-0.8h-2.2
		v1.7h2.3V178z"/>
	<path class="st0" d="M158.6,176L158.6,176l-1.8,5h-0.9l-1.8-5l0,0l0.1,3v1.1l0.7,0.1v0.8h-2.8v-0.8l0.7-0.1v-4.9l-0.7-0.1v-0.8h0.7
		h1.8l1.7,5h0l1.7-5h2.5v0.8l-0.7,0.1v4.9l0.7,0.1v0.8h-2.8v-0.8l0.7-0.1V179L158.6,176z"/>
</g>
<g>
	<path class="st0" d="M115.4,182.7c0.8,0,1.5,0.3,2.1,0.8c0.5,0.5,0.8,1.2,0.8,2v1.1c0,0.8-0.3,1.5-0.8,2c-0.5,0.5-1.2,0.8-2.1,0.8
		h-3.1v-0.8l0.7-0.1v-4.9l-0.7-0.1v-0.8h0.7H115.4z M114.5,183.8v4.7h0.9c0.5,0,0.9-0.2,1.1-0.5c0.3-0.3,0.4-0.8,0.4-1.3v-1.1
		c0-0.5-0.1-1-0.4-1.3c-0.3-0.3-0.7-0.5-1.1-0.5H114.5z"/>
	<path class="st0" d="M125.4,186.2c0,1-0.3,1.8-0.9,2.5c-0.6,0.7-1.3,1-2.2,1c-0.9,0-1.7-0.3-2.2-1c-0.6-0.7-0.8-1.5-0.8-2.5v-0.1
		c0-1,0.3-1.8,0.8-2.5c0.6-0.7,1.3-1,2.2-1c0.9,0,1.7,0.3,2.2,1c0.6,0.7,0.9,1.5,0.9,2.5V186.2z M124.1,186c0-0.7-0.1-1.3-0.4-1.7
		c-0.3-0.4-0.7-0.7-1.3-0.7c-0.6,0-1,0.2-1.3,0.7c-0.3,0.4-0.4,1-0.4,1.7v0.1c0,0.7,0.1,1.3,0.4,1.7c0.3,0.4,0.7,0.7,1.3,0.7
		c0.6,0,1-0.2,1.3-0.7c0.3-0.4,0.4-1,0.4-1.7V186z"/>
	<path class="st0" d="M132,182.7c0.8,0,1.4,0.2,1.8,0.6c0.5,0.4,0.7,0.9,0.7,1.6c0,0.7-0.2,1.2-0.7,1.6c-0.5,0.4-1.1,0.6-1.8,0.6
		h-1.1v1.5l0.7,0.1v0.8h-2.8v-0.8l0.7-0.1v-4.9l-0.7-0.1v-0.8h0.7H132z M130.9,186h1.1c0.4,0,0.7-0.1,0.9-0.3
		c0.2-0.2,0.3-0.5,0.3-0.8c0-0.3-0.1-0.6-0.3-0.8c-0.2-0.2-0.5-0.3-0.9-0.3h-1.1V186z"/>
	<path class="st0" d="M141.5,186.2c0,1-0.3,1.8-0.9,2.5c-0.6,0.7-1.3,1-2.2,1c-0.9,0-1.7-0.3-2.2-1c-0.6-0.7-0.8-1.5-0.8-2.5v-0.1
		c0-1,0.3-1.8,0.8-2.5c0.6-0.7,1.3-1,2.2-1c0.9,0,1.7,0.3,2.2,1c0.6,0.7,0.9,1.5,0.9,2.5V186.2z M140.1,186c0-0.7-0.1-1.3-0.4-1.7
		c-0.3-0.4-0.7-0.7-1.3-0.7s-1,0.2-1.3,0.7c-0.3,0.4-0.4,1-0.4,1.7v0.1c0,0.7,0.1,1.3,0.4,1.7c0.3,0.4,0.7,0.7,1.3,0.7
		c0.6,0,1-0.2,1.3-0.7c0.3-0.4,0.4-1,0.4-1.7V186z"/>
	<path class="st0" d="M147.4,184.9h-1l-0.2-0.9c-0.1-0.1-0.3-0.1-0.5-0.2c-0.2-0.1-0.5-0.1-0.7-0.1c-0.4,0-0.7,0.1-0.9,0.2
		c-0.2,0.2-0.3,0.4-0.3,0.6c0,0.2,0.1,0.4,0.3,0.6c0.2,0.1,0.6,0.3,1.1,0.5c0.8,0.2,1.3,0.5,1.7,0.8c0.4,0.3,0.6,0.8,0.6,1.4
		c0,0.6-0.2,1-0.7,1.4c-0.5,0.3-1.1,0.5-1.8,0.5c-0.5,0-1-0.1-1.5-0.3c-0.4-0.2-0.8-0.4-1.1-0.7v-1.4h1.1l0.1,1
		c0.1,0.1,0.3,0.2,0.6,0.3c0.2,0.1,0.5,0.1,0.8,0.1c0.4,0,0.7-0.1,0.9-0.2c0.2-0.2,0.3-0.4,0.3-0.6c0-0.3-0.1-0.5-0.3-0.6
		c-0.2-0.2-0.5-0.3-1-0.4c-0.8-0.2-1.4-0.5-1.8-0.8c-0.4-0.3-0.6-0.8-0.6-1.3c0-0.6,0.2-1,0.7-1.4c0.5-0.3,1.1-0.5,1.8-0.5
		c0.5,0,1,0.1,1.4,0.2c0.4,0.2,0.8,0.4,1.1,0.6V184.9z"/>
	<path class="st0" d="M148.3,189.5v-0.8l0.7-0.1v-4.9l-0.7-0.1v-0.8h0.7h1.4h0.7v0.8l-0.7,0.1v4.8h1.9l0.1-0.9h1v1.9H148.3z"/>
	<path class="st0" d="M154.1,188.7l0.5-0.1l2.1-5.9h1.4l2.1,5.9l0.5,0.1v0.8h-2.3v-0.8l0.5-0.1l-0.3-0.9h-2.2l-0.3,0.9l0.5,0.1v0.8
		h-2.3V188.7z M156.5,186.7h1.6l-0.8-2.4h0L156.5,186.7z"/>
</g>
<rect x="162.7" y="117.4" transform="matrix(-0.7071 0.7071 -0.7071 -0.7071 386.9768 96.2307)" class="st1" width="21.8" height="21.8"/>
<rect x="178.1" y="132.8" transform="matrix(-0.7071 0.7071 -0.7071 -0.7071 424.1667 111.6353)" class="st2" width="21.8" height="21.8"/>
<rect x="162.7" y="148.2" transform="matrix(0.7071 -0.7071 0.7071 0.7071 -61.6454 169.3148)" class="st3" width="21.8" height="21.8"/>
<rect x="178.1" y="163.6" transform="matrix(0.7071 -0.7071 0.7071 0.7071 -68.0262 184.7194)" class="st4" width="21.8" height="21.8"/>
<rect x="147.3" y="132.8" transform="matrix(0.7071 -0.7071 0.7071 0.7071 -55.2646 153.9103)" class="st5" width="21.8" height="21.8"/>
<rect x="178.1" y="102" transform="matrix(-0.7071 0.7071 -0.7071 -0.7071 402.3814 59.0408)" class="st6" width="21.8" height="21.8"/>
<rect x="178.1" y="71.2" transform="matrix(-0.7071 0.7071 -0.7071 -0.7071 380.596 6.4463)" class="st7" width="21.8" height="21.8"/>
<rect x="147.3" y="102" transform="matrix(-0.7071 0.7071 -0.7071 -0.7071 349.7869 80.8261)" class="st8" width="21.8" height="21.8"/>
<rect x="131.9" y="117.4" transform="matrix(0.7071 -0.7071 0.7071 0.7071 -48.8838 138.5057)" class="st9" width="21.8" height="21.8"/>
<rect x="162.7" y="86.6" transform="matrix(-0.7071 0.7071 -0.7071 -0.7071 365.1915 43.6362)" class="st10" width="21.8" height="21.8"/>
<g>
	<g>
		<path d="M184.3,175h-2.6v2.2h2.4l0.1-0.9h1.2v2.1h-6v-0.9l0.8-0.2v-5.4l-0.8-0.2v-0.9h0.8h5.2v2.1h-1.2l-0.1-0.9h-2.4v1.9h2.6V175
			z"/>
		<path d="M186.5,178.3v-1l2.4-2.6c0.4-0.4,0.6-0.7,0.8-1c0.1-0.3,0.2-0.5,0.2-0.8c0-0.3-0.1-0.6-0.3-0.8c-0.2-0.2-0.4-0.3-0.7-0.3
			c-0.3,0-0.6,0.1-0.8,0.4c-0.2,0.2-0.3,0.6-0.3,0.9h-1.5l0,0c0-0.7,0.2-1.3,0.7-1.7c0.5-0.5,1.1-0.7,1.9-0.7c0.8,0,1.4,0.2,1.8,0.6
			c0.4,0.4,0.7,0.9,0.7,1.6c0,0.5-0.1,0.9-0.4,1.3c-0.3,0.4-0.7,0.9-1.2,1.5l-1.3,1.5l0,0h2l0.1-0.7h1.2v1.9H186.5z"/>
		<path d="M197.5,175h-2.6v2.2h2.4l0.1-0.9h1.2v2.1h-6v-0.9l0.8-0.2v-5.4l-0.8-0.2v-0.9h0.8h5.2v2.1h-1.2l-0.1-0.9h-2.4v1.9h2.6V175
			z"/>
	</g>
	<g>
		<path d="M184.3,175h-2.6v2.2h2.4l0.1-0.9h1.2v2.1h-6v-0.9l0.8-0.2v-5.4l-0.8-0.2v-0.9h0.8h5.2v2.1h-1.2l-0.1-0.9h-2.4v1.9h2.6V175
			z"/>
		<path d="M186.5,178.3v-1l2.4-2.6c0.4-0.4,0.6-0.7,0.8-1c0.1-0.3,0.2-0.5,0.2-0.8c0-0.3-0.1-0.6-0.3-0.8c-0.2-0.2-0.4-0.3-0.7-0.3
			c-0.3,0-0.6,0.1-0.8,0.4c-0.2,0.2-0.3,0.6-0.3,0.9h-1.5l0,0c0-0.7,0.2-1.3,0.7-1.7c0.5-0.5,1.1-0.7,1.9-0.7c0.8,0,1.4,0.2,1.8,0.6
			c0.4,0.4,0.7,0.9,0.7,1.6c0,0.5-0.1,0.9-0.4,1.3c-0.3,0.4-0.7,0.9-1.2,1.5l-1.3,1.5l0,0h2l0.1-0.7h1.2v1.9H186.5z"/>
		<path d="M197.5,175h-2.6v2.2h2.4l0.1-0.9h1.2v2.1h-6v-0.9l0.8-0.2v-5.4l-0.8-0.2v-0.9h0.8h5.2v2.1h-1.2l-0.1-0.9h-2.4v1.9h2.6V175
			z"/>
	</g>
	<g>
		<path class="st11" d="M184.3,175h-2.6v2.2h2.4l0.1-0.9h1.2v2.1h-6v-0.9l0.8-0.2v-5.4l-0.8-0.2v-0.9h0.8h5.2v2.1h-1.2l-0.1-0.9
			h-2.4v1.9h2.6V175z"/>
		<path class="st11" d="M186.5,178.3v-1l2.4-2.6c0.4-0.4,0.6-0.7,0.8-1c0.1-0.3,0.2-0.5,0.2-0.8c0-0.3-0.1-0.6-0.3-0.8
			c-0.2-0.2-0.4-0.3-0.7-0.3c-0.3,0-0.6,0.1-0.8,0.4c-0.2,0.2-0.3,0.6-0.3,0.9h-1.5l0,0c0-0.7,0.2-1.3,0.7-1.7
			c0.5-0.5,1.1-0.7,1.9-0.7c0.8,0,1.4,0.2,1.8,0.6c0.4,0.4,0.7,0.9,0.7,1.6c0,0.5-0.1,0.9-0.4,1.3c-0.3,0.4-0.7,0.9-1.2,1.5
			l-1.3,1.5l0,0h2l0.1-0.7h1.2v1.9H186.5z"/>
		<path class="st11" d="M197.5,175h-2.6v2.2h2.4l0.1-0.9h1.2v2.1h-6v-0.9l0.8-0.2v-5.4l-0.8-0.2v-0.9h0.8h5.2v2.1h-1.2l-0.1-0.9
			h-2.4v1.9h2.6V175z"/>
	</g>
</g>
<path class="st0" d="M85,67.7c-1.3-1.4-3.5-1.4-4.9,0L69.6,78.5c-1.3,1.4-1.3,3.6,0,5l10.5,10.8c1.3,1.4,1.3,3.6,0,5l-10.5,10.8
	c-1.3,1.4-1.3,3.6,0,5l10.5,10.8c1.3,1.4,1.3,3.6,0,5l-10.5,10.8c-1.3,1.4-1.3,3.6,0,5l10.5,10.8c1.3,1.4,1.3,3.6,0,5l-10.5,10.8
	c-1.3,1.4-1.3,3.6,0,5l10.5,10.8c1.3,1.4,3.5,1.4,4.9,0c23.3-15.2,42.2-34.5,56.8-58c1.3-1.4,1.3-3.6,0-5
	C126.7,102.5,105.4,84.4,85,67.7z"/>
<g>
	<ellipse class="st12" cx="95.5" cy="92.7" rx="3.9" ry="3.9"/>
	<path class="st12" d="M120.4,99.3c-8.2,9.4-27.8,10.3-38.5,7.5c-2.4-0.6-4.7-1.4-6.9-2.4l-3.8,3.8c14.6,7.3,35.8,8.1,49.3-2.4
		c1.2-0.9,2.3-1.9,3.2-3C122.6,101.7,121.5,100.5,120.4,99.3z"/>
</g>
<g>
	<polygon class="st13" points="114.8,134.9 121.5,138.2 124.8,131.3 118.1,128 	"/>
	<path class="st13" d="M132.3,112.7c-12.4,2.9-24.1,7.9-35.2,15.7c-8.7,6.1-17,13.4-24,21.5l3.5,3.6c2.1-2.4,4.3-4.6,6.3-6.6
		c8.5-8.4,18.1-15.8,28.6-21.4c7.7-4.1,15.7-6.9,24.1-8.6C134.5,115.4,133.4,114.1,132.3,112.7z"/>
</g>
<g>
	<polygon class="st14" points="89.7,175.4 95.5,166.2 85.2,165.9 	"/>
	<path class="st14" d="M122.3,144.1c-11.2,2.8-23,2.6-33.9-1.7c-4.6-1.8-8.9-4.2-12.9-7l-3.6,3.7c2.1,1.5,4.3,2.8,6.5,4.1
		c16.3,9.2,35,9.9,52,3.8c1.9-2.5,3.8-5,5.6-7.6C131.4,141.5,126.5,143,122.3,144.1z"/>
</g>
<g>
	<path class="st11" d="M115,193.7h-1.4v1.1h1.3l0-0.5h0.6v1.1h-3.2V195l0.4-0.1V192l-0.4-0.1v-0.5h0.4h2.7v1.1h-0.6l0-0.5h-1.3v1
		h1.4V193.7z"/>
	<path class="st11" d="M118.4,191.5c0.5,0,0.9,0.2,1.2,0.5c0.3,0.3,0.5,0.7,0.5,1.2v0.7c0,0.5-0.2,0.9-0.5,1.2
		c-0.3,0.3-0.7,0.5-1.2,0.5h-1.8V195l0.4-0.1V192l-0.4-0.1v-0.5h0.4H118.4z M117.8,192.1v2.8h0.5c0.3,0,0.5-0.1,0.7-0.3
		s0.2-0.4,0.2-0.8v-0.7c0-0.3-0.1-0.6-0.2-0.8s-0.4-0.3-0.7-0.3H117.8z"/>
	<path class="st11" d="M122.6,191.5v0.5l-0.4,0.1v2.1c0,0.3,0.1,0.5,0.2,0.6c0.1,0.1,0.3,0.2,0.6,0.2c0.3,0,0.4-0.1,0.6-0.2
		c0.1-0.1,0.2-0.3,0.2-0.6V192l-0.4-0.1v-0.5h1.7v0.5l-0.4,0.1v2.1c0,0.5-0.1,0.8-0.4,1c-0.3,0.2-0.7,0.4-1.2,0.4
		c-0.5,0-0.9-0.1-1.2-0.4c-0.3-0.2-0.4-0.6-0.4-1V192L121,192v-0.5h0.4h0.8H122.6z"/>
	<path class="st11" d="M129.1,192.8h-0.6l-0.1-0.5c-0.1-0.1-0.2-0.1-0.3-0.2c-0.1,0-0.3-0.1-0.4-0.1c-0.3,0-0.6,0.1-0.8,0.4
		c-0.2,0.3-0.3,0.6-0.3,1v0.1c0,0.4,0.1,0.7,0.3,1c0.2,0.3,0.5,0.4,0.8,0.4c0.2,0,0.3,0,0.4-0.1c0.1,0,0.2-0.1,0.3-0.2l0.1-0.5h0.6
		v0.8c-0.2,0.2-0.4,0.3-0.6,0.4c-0.3,0.1-0.5,0.2-0.8,0.2c-0.5,0-1-0.2-1.3-0.6c-0.3-0.4-0.5-0.9-0.5-1.4v-0.1
		c0-0.6,0.2-1.1,0.5-1.4c0.3-0.4,0.8-0.6,1.3-0.6c0.3,0,0.6,0.1,0.8,0.2c0.3,0.1,0.5,0.3,0.6,0.4V192.8z"/>
	<path class="st11" d="M130,195l0.3,0l1.2-3.5h0.8l1.2,3.5l0.3,0v0.5h-1.4V195l0.3,0l-0.2-0.6h-1.3l-0.2,0.6l0.3,0v0.5H130V195z
		 M131.5,193.8h0.9l-0.5-1.4h0L131.5,193.8z"/>
	<path class="st11" d="M137.8,191.5v1.1h-0.6l0-0.4h-0.7v2.8l0.4,0.1v0.5h-1.7V195l0.4-0.1v-2.8h-0.7l0,0.4h-0.6v-1.1H137.8z"/>
	<path class="st11" d="M138.6,192v-0.5h1.7v0.5l-0.4,0.1v2.9l0.4,0.1v0.5h-1.7V195l0.4-0.1V192L138.6,192z"/>
	<path class="st11" d="M144.8,193.5c0,0.6-0.2,1.1-0.5,1.5c-0.3,0.4-0.8,0.6-1.3,0.6c-0.5,0-1-0.2-1.3-0.6s-0.5-0.9-0.5-1.5v-0.1
		c0-0.6,0.2-1.1,0.5-1.5c0.3-0.4,0.8-0.6,1.3-0.6c0.5,0,1,0.2,1.3,0.6S144.8,192.9,144.8,193.5L144.8,193.5z M144,193.4
		c0-0.4-0.1-0.8-0.3-1c-0.2-0.3-0.4-0.4-0.8-0.4s-0.6,0.1-0.8,0.4c-0.2,0.3-0.2,0.6-0.2,1v0.1c0,0.4,0.1,0.8,0.3,1
		c0.2,0.3,0.4,0.4,0.8,0.4c0.3,0,0.6-0.1,0.8-0.4C144,194.3,144,193.9,144,193.4L144,193.4z"/>
	<path class="st11" d="M149.8,191.5v0.5l-0.4,0.1v3.4h-0.8l-1.6-2.7l0,0v2.1l0.4,0.1v0.5h-1.7V195l0.4-0.1V192l-0.4-0.1v-0.5h0.4
		h0.8l1.6,2.7l0,0V192l-0.4-0.1v-0.5h1.2H149.8z"/>
	<path class="st11" d="M156.1,191.5v1.1h-0.6l0-0.4h-0.7v2.8l0.4,0.1v0.5h-1.7V195l0.4-0.1v-2.8h-0.7l0,0.4h-0.6v-1.1H156.1z"/>
	<path class="st11" d="M160.6,193.5c0,0.6-0.2,1.1-0.5,1.5c-0.3,0.4-0.8,0.6-1.3,0.6c-0.5,0-1-0.2-1.3-0.6c-0.3-0.4-0.5-0.9-0.5-1.5
		v-0.1c0-0.6,0.2-1.1,0.5-1.5c0.3-0.4,0.8-0.6,1.3-0.6c0.5,0,1,0.2,1.3,0.6S160.6,192.9,160.6,193.5L160.6,193.5z M159.8,193.4
		c0-0.4-0.1-0.8-0.3-1c-0.2-0.3-0.4-0.4-0.8-0.4s-0.6,0.1-0.8,0.4c-0.2,0.3-0.2,0.6-0.2,1v0.1c0,0.4,0.1,0.8,0.3,1
		c0.2,0.3,0.4,0.4,0.8,0.4c0.3,0,0.6-0.1,0.8-0.4C159.7,194.3,159.8,193.9,159.8,193.4L159.8,193.4z"/>
</g>
<g>
	<path class="st11" d="M115,198.6h-1.4v1.1h1.3l0-0.5h0.6v1.1h-3.2v-0.5l0.4-0.1v-2.9l-0.4-0.1v-0.5h0.4h2.7v1.1h-0.6l0-0.5h-1.3v1
		h1.4V198.6z"/>
	<path class="st11" d="M120.7,197.4L120.7,197.4l-1.1,3h-0.5l-1.1-3l0,0l0.1,1.8v0.6l0.4,0.1v0.5h-1.7v-0.5l0.4-0.1v-2.9l-0.4-0.1
		v-0.5h0.4h1l1,2.9h0l1-2.9h1.5v0.5l-0.4,0.1v2.9l0.4,0.1v0.5h-1.7v-0.5l0.4-0.1v-0.6L120.7,197.4z"/>
	<path class="st11" d="M124.9,196.3c0.5,0,0.8,0.1,1.1,0.4c0.3,0.2,0.4,0.5,0.4,0.9c0,0.4-0.1,0.7-0.4,0.9c-0.3,0.2-0.6,0.3-1.1,0.3
		h-0.7v0.9l0.4,0.1v0.5H123v-0.5l0.4-0.1v-2.9l-0.4-0.1v-0.5h0.4H124.9z M124.3,198.3h0.7c0.2,0,0.4-0.1,0.5-0.2
		c0.1-0.1,0.2-0.3,0.2-0.5c0-0.2-0.1-0.4-0.2-0.5c-0.1-0.1-0.3-0.2-0.5-0.2h-0.7V198.3z"/>
	<path class="st11" d="M127.6,200.3v-0.5l0.4-0.1v-2.9l-0.4-0.1v-0.5h0.4h0.8h0.4v0.5l-0.4,0.1v2.8h1.1l0-0.5h0.6v1.1H127.6z"/>
	<path class="st11" d="M135.3,198.4c0,0.6-0.2,1.1-0.5,1.5s-0.8,0.6-1.3,0.6c-0.5,0-1-0.2-1.3-0.6c-0.3-0.4-0.5-0.9-0.5-1.5v-0.1
		c0-0.6,0.2-1.1,0.5-1.5c0.3-0.4,0.8-0.6,1.3-0.6c0.5,0,1,0.2,1.3,0.6C135.2,197.2,135.3,197.7,135.3,198.4L135.3,198.4z
		 M134.5,198.3c0-0.4-0.1-0.8-0.3-1c-0.2-0.3-0.4-0.4-0.8-0.4c-0.3,0-0.6,0.1-0.8,0.4c-0.2,0.3-0.2,0.6-0.2,1v0.1
		c0,0.4,0.1,0.8,0.3,1c0.2,0.3,0.4,0.4,0.8,0.4c0.3,0,0.6-0.1,0.8-0.4C134.4,199.1,134.5,198.8,134.5,198.3L134.5,198.3z"/>
	<path class="st11" d="M137.9,196.8l-0.3,0l0.6,1.3h0l0.6-1.3l-0.3,0v-0.5h1.5v0.5l-0.3,0.1l-1.1,2.1v0.8l0.4,0.1v0.5h-1.7v-0.5
		l0.4-0.1v-0.9l-1.1-2l-0.3-0.1v-0.5h1.5V196.8z"/>
	<path class="st11" d="M145,197.4L145,197.4l-1.1,3h-0.5l-1.1-3l0,0l0.1,1.8v0.6l0.4,0.1v0.5h-1.7v-0.5l0.4-0.1v-2.9l-0.4-0.1v-0.5
		h0.4h1l1,2.9h0l1-2.9h1.5v0.5l-0.4,0.1v2.9l0.4,0.1v0.5h-1.7v-0.5l0.4-0.1v-0.6L145,197.4z"/>
	<path class="st11" d="M149.9,198.6h-1.4v1.1h1.3l0-0.5h0.6v1.1h-3.2v-0.5l0.4-0.1v-2.9l-0.4-0.1v-0.5h0.4h2.7v1.1h-0.6l0-0.5h-1.3
		v1h1.4V198.6z"/>
	<path class="st11" d="M155.9,196.3v0.5l-0.4,0.1v3.4h-0.8l-1.6-2.7l0,0v2.1l0.4,0.1v0.5h-1.7v-0.5l0.4-0.1v-2.9l-0.4-0.1v-0.5h0.4
		h0.8l1.6,2.7l0,0v-2.1l-0.4-0.1v-0.5h1.2H155.9z"/>
	<path class="st11" d="M160.6,196.3v1.1h-0.6l0-0.4h-0.7v2.8l0.4,0.1v0.5h-1.7v-0.5l0.4-0.1v-2.8h-0.7l0,0.4H157v-1.1H160.6z"/>
</g>
</svg>
