<svg xmlns="http://www.w3.org/2000/svg" viewBox="0 0 565.08 1332.95"><defs><style>.cls-1{fill:#4ac0e9;}.cls-2{opacity:0.6;}.cls-3{opacity:0.7;}.cls-4{fill:#c1b49a;}.cls-5{fill:#808284;}.cls-6{fill:#be202e;}.cls-7{fill:#fff;}.cls-8{fill:#27a8e0;}</style></defs><title>logo</title><path class="cls-1" d="M120.88 1160.39l-2.6-.39 76.31-518.34 2.6.39-76.31 518.34zm78.06-794.31l-144.74 966.67-.03.2-2.6-.4 144.77-966.87 2.6.4zm327.48 123.09l-125.54 843.58h-2.66l125.6-843.98 2.6.4zm-379.2 763.8l-2.61-.39 76.31-518.34 2.6.4-76.3 518.33zm158.59-420.55l-73.65 500.33h-2.67l73.71-500.72 2.61.39zm77.47-3.42l-74.16 503.75h-2.66l74.22-504.15 2.6.4zm16.4 0l-74.16 503.75h-2.66l74.22-504.15 2.6.4zm12.01 0l-74.16 503.75h-2.66l74.21-504.15 2.61.4zm17.86 0l-74.16 503.75h-2.66l74.22-504.15 2.6.4zm14.94 0l-74.16 503.75h-2.67l74.22-504.15 2.61.4zm87.83 170.95l-48.99 332.8h-67.09l49.05-333.19 67.03.39zm32.76 107.75l-33.13 225.05h-26.09l33.19-225.44 26.03.39zm-327.79 73.91l-22.25 151.14h-67.08l22.31-151.53 67.02.39zm227.99-352.61l-74.16 503.75h-2.67l74.22-504.15 2.61.4zm-335.62 415.07l-2.6-.39 76.3-518.34 2.61.39-76.31 518.34zm-35.11 0l-2.61-.39 76.31-518.34 2.61.39-76.31 518.34zm7.84-429.46l-76.28 518.14-.03.19-1.29-.19-1.32-.2 76.31-518.34 2.61.4zm-43.89 138.87l-55.83 379.27h-2.67l55.89-379.66 2.61.39zm-33.71 379.27h1.32l-.03.19-1.29-.19zm29.41 0l-.03.2-1.3-.2h1.33z"/><path class="cls-4" d="M284.42 584.69c1 3.86 4.72 7.19 5.75 6.55-.18 2.83 5.82 9.16 6.57 9 1.61 5.56 11.53 8.59 12.28 8.41.84 4.11 3.18 5.5 5.79 5.62 4.41.21 9.59-3.18 9.59-3.18l1.37 2.6.1.2.73 1.37 3.73 72.1s1.54 44.92 1.77 45.17c0 1.64-.41 5.09-1 9.7-3.18 23.32-12.52 76.46-12.13 76-4.18 19.25-10.16 96.55-10.22 97.25-1 7.52.84 29 .41 28-.39 1.83-.73 3.83-1 6-3 22.43-.52 59.35-.94 58.88 0 .26 0 .52.07.77.15 1.48.27 2.92.36 4.31 1.26 18.88-2 30-2.24 30.6a7.62 7.62 0 0 0 0 5.15 8.35 8.35 0 0 0 1.45 2.54l-.33 1c-.71 2.18-2.32 7.29-2 7.87a7.06 7.06 0 0 0-.18 1.33 8.15 8.15 0 0 0 2.41 6 13.09 13.09 0 0 0-4-1.85 2.69 2.69 0 0 0-3.52 1.93c-.41 1.22-.39 2.52-.77 2.4-.93 22-16.9 51.76-16.14 51.34-1.88 6.27-6.92 23.25-5.37 22.17a28.49 28.49 0 0 0 1.23 6.84c.89 3.34 2 6.63 2.57 7.17.09.11.18.11.23 0 22.93 3.89 62.93-4.6 63.24-5.53 12.63-4.61 6.06-9.79 6.3-9.78.49-3.76 2.74-4.08 2.47-3.86 35.17-13.79 31.67-20.67 31.45-21.16l.22-.44c3.76-8.35-3.14-23-3.14-23s-6.78-31.51-7.09-31.53l.39-.22a8 8 0 0 0 3.1-3.9 14.29 14.29 0 0 0 .83-2.79c1-5.06-.09-10.75-1.06-10.73h.09a6.8 6.8 0 0 0 4.07-4.27c1.56-4.06.8-9.47 1.24-11.06a1 1 0 0 1 .15-.33 12.68 12.68 0 0 0 5.08-6.43 14.46 14.46 0 0 0 .4-8.33c-.2-.67-.42-1-.53-.79 1.22-3.11 1.49-8.58 1.23-14.56a135.35 135.35 0 0 0-3.25-24.25c-.49-1.85-.92-2.87-1.22-2.66.25-.46.5-.93.74-1.43 9.23-18.69 12.69-61.22 13.14-60.73 5.59-13.92 6-39.37 6.26-49.88a35 35 0 0 1 .22-4.7c4.9-11.06 1.1-32.41 2.32-32.1.4-.78.83-1.8 1.29-3 4.07-10.57 10-34.77 9.94-33.5 2.89-5.86 6.73-23.49 13.29-59.49q1.73-9.48 3.72-20.71.86-5.05 1.77-9.78c4.77-24.45 10.9-42.06 15.41-52.9 1.29-3.11 2.45-5.67 3.42-7.67 1.72-3.59 2.79-5.39 2.79-5.39s-.37 2.79-1 7.51l-1 7.72c-4.29 32.08-13.89 103.64-14.26 103.43-1.46 15.71-.76 50.61.06 75.47v1.3c.51 15.15 1.05 26.27 1.13 26.46-8.13 11.31-12.9 58.42-12.48 59.63-4.48 10.07-3.53 31.24-2.86 43 .28 4.91.52 8.18.29 8.3a13.22 13.22 0 0 0-1.17 1.81c.12.58.27 1.18.45 1.79 0 0-.7 2.14-1.71 5.43-.77 1.22-1.56 2.4-2.36 3.56 0-.22 0-.74-.05-1.53-2.52 8.13-4.2 17.17-3.88 17-5.36 13.58-3.87 20.74-2.06 24.58 1.12 2.36 2.37 3.47 2.22 4a.3.3 0 0 1 0 .1c-6 3.37-6.6 7-6.3 9.64.2 1.81.81 3.12.28 3.47a4.61 4.61 0 0 0-1.13 1.42 9.4 9.4 0 0 0-.94 3.45c-.45 4.3.78 9.35-.58 9.42-6.81 17.57 5.39 35 6.29 36.22a10.24 10.24 0 0 1 1.12 3.24c1.71 7.79 2 24.87 2.26 24.48-.42 6.62 6.85 8.52 7.37 8.08 43 6.18 44.3-2.27 43.81-2.31 2.8-5.27.37-21.08.37-21.08s1.19-22.21 1.4-21.72c5.95-8.14.61-17 1.07-16.53a21.25 21.25 0 0 0 2.34-5.69 32.4 32.4 0 0 0 .94-6.61c.14-2.87-.06-5 .07-5.26a27.07 27.07 0 0 0 2.95-4.78c2.11-4.52 1.52-7.51 1-8.59-.12-.27-.25-.43-.31-.44 1.3-1.38 2.07-3.72 2.52-6.13l.15-.91c.59-4 .37-7.79.2-7.66 13.59-19.49 16.62-51.29 15.86-50.86 7.95-16.31 20.77-77.35 21.49-77.07.82-3.35 1.79-12.93 2.77-25.15.23-3 .48-6.12.71-9.37 2.4-32.5 4.69-75.43 4.88-75.89.13-4 1.33-10.85 3.06-18.92 5.17-24.1 15-58.84 15-58.84s24-58.88 23.24-58.22c3.4-10.17 5.79-22 7.47-34.29 1.1-8 1.88-16.2 2.44-24.22 1.23-17.47 1.37-34.16 1.24-46.51 0-4-.1-7.59-.17-10.57-.07-3.06-.13-5.49-.17-7.17v-2.09a1.87 1.87 0 0 1 0-.52c2.94.44 9.24-1.76 8.78-2.26 5-.85 3.67-3.31 3.67-3.31s-.34-1.37-.78-3.26c-.92-4.05-2.29-10.45-1.76-10.9 5-3.36 11.16-10.28 15.12-15.42 2.92-3.76 4.68-6.57 4-6.31 13.48-10.25 2.86-21.39 2.86-21.39s-18.82-60.06-19.05-60.31c5.52-5.33-4.2-22.81-4.2-22.81s2.08-5.55 1.39-6.31a16.88 16.88 0 0 0 .64-1.67c3-9 5.5-32.38 7.28-54.86.79-9.95 1.45-19.72 2-28 .81-13.27 1.24-22.65 1.23-22.65 1.12-3 4.18-15.69 6.29-25 1.3-5.68 2.23-10.09 2.15-10.27a26.77 26.77 0 0 0 3.9-6.34 37.71 37.71 0 0 0 2.94-13.25c.39-7.57-1.11-13.59-1.25-13.48-2.49-7.27 1.75-19.56 2.23-19.29 2.17-5.61 1.75-14.93 1-22-.6-5.5-1.41-9.67-1.41-9.77a6.34 6.34 0 0 0 2.46-7.37 8.71 8.71 0 0 1-.42-1.27c1.76-.6.5-7.8.26-7.81 2.92-11 3-54.1 3-54.1a5 5 0 0 0-.14-1 8.2 8.2 0 0 0-2-3.61c-1.48-4.25 2.52-17.03 2.52-17.03a20.76 20.76 0 0 0 .67-2.37c1.5-6.66.16-14.49-1.31-20.08a64.53 64.53 0 0 0-2.36-7.39c-1-7.42-9.36-3.94-9.38-3.7-2-7-9.55-4.91-9.58-4.43-7.44-6.9-13.7 2.17-13.7 2.17-4.53-6.23-10 5.51-9.47 5.3a7.08 7.08 0 0 1 0 .88c-.2 3.55-1.71 14.42-1.71 14.42s3.57 9.72 3.26 10.65c-2.16-.86-4.51 1.12-4.51 1.12l.88 5.52 2.29 2.76s4.27 2.65 5.94 3.47l6.18 3.5s.09.47.16 1.11a7.31 7.31 0 0 1-.11 3 .67.67 0 0 1-.33.38c-1.26.39-2.93 3.37-2.93 3.37s-2.13 6.26-2.18 7c-.24 3.77-9 36.39-9.22 35.9-4.16 10.87-6 35.17-6.08 36.83a50.59 50.59 0 0 0-8.87 22.88c-3.33 1.92-2.44 11-3.16 10.7-7.56 2.58-9.11 11.25-11.2 13l-.62.09a18.53 18.53 0 0 0-7.72 3.15s-.79-3.13-1.53-3.18c-.93-.78-10-.91-10.36 0-.15-5.23-9.8-.89-9.8-.89s.22-.81.55-2v-.13c.12-.45.26-.95.41-1.47.76-2.73 1.71-6.12 1.89-6.66 2.09 5.83 6.49 2.57 6.75 2.35 4.9-3.24 7.89-22.95 7.6-22.26.69-10.63-4-6.91-4.5-6.7-1.65 2.73-3.8 1.64-3.8 1.64s-.79-3.13-.54-3.12c6.67-46-9.47-59.67-9.61-61.34-21.63-23.71-54.61-6-54.86-6-20.57 8.26-21.16 40.27-20.79 54.1v.29c.1 3.71.27 6 .1 6.13a1.73 1.73 0 0 0-.35-.56c-1.39-1.52-4.61.21-5.27-.06-4.23 12 4.39 35.16 4.16 34.9.77 1.53 1.48 2.21 2.12 2.38 1.89.5 3.11-3.5 3.11-3.5.1.18 3.2 5.68 4.87 6.89l.11.08a19.48 19.48 0 0 1 .54 2.16 31.9 31.9 0 0 1-.24 11.45l-.22 1.12a34.4 34.4 0 0 1-1.66 5.78c-.83-.26-1.67-.48-2.52-.67a47 47 0 0 0-15.6-.52 70.2 70.2 0 0 0-7.33 1.25 79.91 79.91 0 0 0-12.06 3.7h.08c-20.16-.86-26.8 10.32-26.8 10.32l-.94.47c-.59.31-1.38.73-2.19 1.21a10.51 10.51 0 0 0-3.32 2.63c-8 1.84-7.33 6.63-7.36 7.1-4.77-2.81-9.6 5.66-9.76 6-6.37 3.15-20 35.42-20.06 35.89-5.13 6.77-2.49 30.9-2.52 31.37-7.38 7.34-3.78 16.59-3.86 17.77-4.46 4.2-1.88 13.86-1.88 13.86s.31 10.46-.68 10.63c-4.79 1.58-1.47 7.49-1.47 7.49s-2.07 5.31-1.81 5.09c-4.8 5.61-1 11.79-1.78 12.22 1.74 11.26-6 23.79-5.57 25.24-3.28 5-1 15.11-1.24 15.33-4.94 7.74-6.88 26.34-7.14 26.56-3.48 8.07-9.2 66.26-9 66.51-.14 5.92 2.79 2.56 2.25 3.24-.07 1-.17 2-.29 3.06-1.84 17-8 35.26-8.43 36.48v.09a.08.08 0 0 0 0-.05c-.58 3.26-15.95 23.42-17.59 26-.1.16-.14.25-.13.27-3.62 11.09 3.38 13.27 3.8 13.96z" transform="translate(-88.92 -1)"/><path class="cls-5" d="M397.69 335.26l-9.26 63.17 29.28 85.23 71.55 37.76 69.74-20.13 36 2.39c-.92-4.05-2.29-10.45-1.76-10.9 5-3.36 11.16-10.28 15.12-15.42 2.92-3.76 4.68-6.57 4-6.31 13.48-10.25 2.86-21.39 2.86-21.39s-18.82-60.06-19.05-60.31c5.52-5.33-4.2-22.81-4.2-22.81s2.08-5.55 1.39-6.31a16.88 16.88 0 0 0 .64-1.67c3-9 5.5-32.38 7.28-54.86.79-9.95 1.45-19.72 2-28l-38.78-60-15.82-28.16a18.53 18.53 0 0 0-7.72 3.15s-.79-3.13-1.53-3.18c-.93-.78-10-.91-10.36 0-.15-5.23-9.8-.89-9.8-.89s.22-.81.55-2v-.13l-28 6.34-42.17 11.31-18.15-1.14a70.2 70.2 0 0 0-7.33 1.25 79.91 79.91 0 0 0-12.06 3.7h.08c-20.16-.86-26.8 10.32-26.8 10.32l-.94.47c-.59.31-1.38.73-2.19 1.21l25.06 2.42 8.44 18.31-7.38 13.51z" transform="translate(-88.92 -1)"/><path class="cls-6" d="M421.02 207.82s-43.8-9.09-61.87 4.34c0-.56 18.2-32.56 18.2-32.56l37.09 1.34z"/><path class="cls-6" d="M552.35 225.84c21.13 10.79 27.74 51.74 27 52.07 26.12 19.36 8.17 56.81 8.12 57.56a43.35 43.35 0 0 0 6.53 23.09c3-9 5.5-32.38 7.28-54.86 2.07-25.92 3.2-50.62 3.19-50.62 1.12-3 4.18-15.69 6.29-25 1.3-5.68 2.23-10.09 2.15-10.27a26.77 26.77 0 0 0 3.9-6.34 37.71 37.71 0 0 0 2.94-13.25c.39-7.57-1.11-13.59-1.25-13.48-2.49-7.27 1.75-19.56 2.23-19.29 2.17-5.61 1.75-14.93 1-22-.6-5.5-1.41-9.67-1.41-9.77a6.34 6.34 0 0 0 2.46-7.37 8.71 8.71 0 0 1-.42-1.27c1.76-.6.5-7.8.26-7.81 2.92-11 3-54.1 3-54.1a5 5 0 0 0-.14-1c-12-13-24.44-9.3-32.24-4.6a.67.67 0 0 1-.33.38c-1.26.39-2.93 3.37-2.93 3.37s-2.13 6.26-2.18 7c-.24 3.77-9 36.39-9.22 35.9-4.16 10.87-6 35.17-6.08 36.83a50.59 50.59 0 0 0-8.87 22.88c-3.33 1.92-2.44 11-3.16 10.7-7.56 2.58-9.11 11.25-11.2 13a18.87 18.87 0 0 0-7.91 2.94c-1.05 8-2.12 19.86-1 29.82 6.47 2.65 12.73 5.36 11.99 5.49zm-128.18-23.57l23.9 10.89c6.55-7.91 5.74-13.28 3.26-16.69a33.84 33.84 0 0 1-1.66 5.78c-.83-.26-1.67-.48-2.52-.67-7.87-1.78-16.34-.79-22.98.69z" transform="translate(-88.92 -1)"/><path class="cls-7" d="M411.88 1048c-6.81 17.57 5.39 35 6.29 36.22a10.24 10.24 0 0 1 1.12 3.24c1.71 7.79 2 24.87 2.26 24.48-.42 6.62 6.85 8.52 7.37 8.08 43 6.18 44.3-2.27 43.81-2.31 2.8-5.27.37-21.08.37-21.08s1.19-22.21 1.4-21.72c5.95-8.14.61-17 1.07-16.53a21.25 21.25 0 0 0 2.34-5.69 32.4 32.4 0 0 0 .94-6.61c.14-2.87-.06-5 .07-5.26a27.07 27.07 0 0 0 2.95-4.78c2.11-4.52 1.52-7.51 1-8.59-.12-.27-.25-.43-.31-.44 1.3-1.38 2.07-3.72 2.52-6.13l-66.74-4.42c1.12 2.36 2.37 3.47 2.22 4a.3.3 0 0 1 0 .1c-6 3.37-6.6 7-6.3 9.64.2 1.81.81 3.12.28 3.47a4.61 4.61 0 0 0-1.13 1.42 9.4 9.4 0 0 0-.94 3.45c-.47 4.3.77 9.35-.59 9.46z" transform="translate(-88.92 -1)"/><path d="M455.25 1122.73a191.56 191.56 0 0 1-26.25-2.24 1.28 1.28 0 0 1-.36 0 9.1 9.1 0 0 1-5.55-2.85 7.48 7.48 0 0 1-2-5.67 6.67 6.67 0 0 1-.11-1.09c-.05-.66-.1-1.61-.16-2.76-.28-5.32-.8-15.19-2-20.58v-.06a9.57 9.57 0 0 0-1.05-3.06c-.54-.74-13.33-18.63-6.34-36.68l.11-.29h.31c.31-.24.2-2.18.13-3.6a34.63 34.63 0 0 1 0-5.39 9.72 9.72 0 0 1 1-3.63 5.35 5.35 0 0 1 1.24-1.56 4.31 4.31 0 0 0-.17-1.25c-.1-.49-.23-1.1-.31-1.77-.45-4 1.62-7.3 6.33-10a7.89 7.89 0 0 0-.57-.92 19.6 19.6 0 0 1-1.58-2.7l-.36-.75 68.08 4.52-.1.53a13.62 13.62 0 0 1-2.35 6l.12.23c.26.57 1.45 3.69-1 9a27.55 27.55 0 0 1-2.94 4.79v5.07a33.66 33.66 0 0 1-1 6.71 22.05 22.05 0 0 1-2.29 5.64c2.62 6.08 2.2 12-1.18 16.65-.21 1.33-.91 13.42-1.34 21.46.17 1.14 2.3 15.68-.32 21.11v.16c.03.3-.32 4.98-17.99 4.98zm-26.46-3.25h.21a190.45 190.45 0 0 0 26.25 2.25c12.64 0 16.33-2.52 17-3.63h-.25l.36-.67c2.7-5.06.34-20.61.32-20.77v-.1c0-.06.29-5.5.6-10.87.19-3.16.35-5.67.47-7.48.08-1.07.14-1.9.19-2.47.07-.77.11-1.16.33-1.3 3.15-4.42 3.5-9.81 1-15.61-.16-.38-.24-.55-.09-.78l.14-.22a21.36 21.36 0 0 0 2.14-5.31 33.34 33.34 0 0 0 .93-6.51c.07-1.53.05-2.83 0-3.77a5.43 5.43 0 0 1 .07-1.66l.06-.1a26.43 26.43 0 0 0 2.9-4.7c2.35-5 1.16-7.86 1-8.17a1 1 0 0 0-.11-.21l-.69-.17.57-.61a11.1 11.1 0 0 0 2.29-5.34l-65.3-4.28c.41.76.82 1.36 1.13 1.83.55.81.87 1.29.74 1.8a.67.67 0 0 1-.09.21l-.07.12-.11.06c-6 3.34-6.32 6.83-6.06 9.16.07.62.19 1.18.29 1.68.22 1 .39 1.82-.2 2.23a4.51 4.51 0 0 0-1 1.27 9 9 0 0 0-.89 3.27 33.79 33.79 0 0 0 0 5.23c.13 2.41.17 3.69-.37 4.3a.93.93 0 0 1-.33.24c-6.61 17.48 5.78 34.8 6.32 35.54a10.11 10.11 0 0 1 1.19 3.37c1.2 5.45 1.72 15.43 2 20.79l.13 2.34.28-.45-.13 2a6.58 6.58 0 0 0 1.74 5.07 8.21 8.21 0 0 0 4.86 2.55h.05z" transform="translate(-88.92 -1)"/><path class="cls-7" d="M277 1143.82a28.49 28.49 0 0 0 1.23 6.84c.89 3.34 2 6.63 2.57 7.17.09.11.18.11.23 0 22.93 3.89 62.93-4.6 63.24-5.53 12.63-4.61 6.06-9.79 6.3-9.78.49-3.76 2.74-4.08 2.47-3.86 35.17-13.79 31.67-20.67 31.45-21.16l.22-.44c3.76-8.35-3.14-23-3.14-23s-6.78-31.51-7.09-31.53l.39-.22a8 8 0 0 0 3.1-3.9 14.29 14.29 0 0 0 .83-2.79c1-5.06-.09-10.75-1.06-10.73h.09a6.8 6.8 0 0 0 4.07-4.27c1.56-4.06.8-9.47 1.24-11.06a1 1 0 0 1 .15-.33 12.68 12.68 0 0 0 5.08-6.43 14.46 14.46 0 0 0 .4-8.33l-81.5-5.41c.15 1.48.27 2.92.36 4.31 1.26 18.88-2 30-2.24 30.6a7.62 7.62 0 0 0 0 5.15 8.35 8.35 0 0 0 1.45 2.54l-.33 1c-.71 2.18-2.32 7.29-2 7.87a7.06 7.06 0 0 0-.18 1.33 8.15 8.15 0 0 0 2.41 6 13.09 13.09 0 0 0-4-1.85 2.69 2.69 0 0 0-3.52 1.93c-.41 1.22-.39 2.52-.77 2.4-.93 22-16.9 51.76-16.14 51.34-1.86 6.24-6.9 23.22-5.31 22.14z" transform="translate(-88.92 -1)"/><path d="M295.07 1159.34a87.26 87.26 0 0 1-13.95-1 .59.59 0 0 1-.23.05.64.64 0 0 1-.48-.24c-.76-.77-2.09-5.16-2.68-7.37a37 37 0 0 1-1.26-6.57.43.43 0 0 1-.11-.12c-.31-.42-.89-1.22 5.46-22.41 0-.27.24-.85 1.37-3.3 3.85-8.37 14.07-30.6 14.81-48.1v-.63l.3.1c0-.15.08-.35.11-.52a10.28 10.28 0 0 1 .36-1.49 3.15 3.15 0 0 1 4-2.25h.05a10 10 0 0 1 2.12.76 8.12 8.12 0 0 1-1.1-4.44 6.88 6.88 0 0 1 .15-1.28c-.11-.48 0-2 2-8v-.06l.24-.73a8.78 8.78 0 0 1-1.35-2.48 8.12 8.12 0 0 1 0-5.46c.05-.12 3.51-11.08 2.22-30.42-.09-1.39-.21-2.84-.35-4.26l-.06-.57h.56l81.83 5.43.09.32a15 15 0 0 1-.4 8.64 13.14 13.14 0 0 1-5.18 6.61.34.34 0 0 0 0 .1 13.94 13.94 0 0 0-.16 2.71c0 2.39 0 5.67-1.09 8.4a7.43 7.43 0 0 1-3.73 4.3c.88 1.56 1.51 6.33.65 10.65a14.62 14.62 0 0 1-.87 2.89 8.33 8.33 0 0 1-3.29 4.12c.21.67.51 2 1.11 4.61s1.42 6.26 2.42 10.84c1.64 7.45 3.27 15 3.42 15.71.52 1.11 6.86 15 3.12 23.34l-.12.27a3.65 3.65 0 0 1-.2 2.49c-1.45 3.62-8.11 9.87-31.61 19.09l-.73.29a4.49 4.49 0 0 0-1.41 3 4.67 4.67 0 0 1 1.36 4.28c-.57 2.29-3.23 4.33-7.9 6-.35.25-1.38.62-4.81 1.39-3.27.74-7.42 1.53-11.7 2.22a219 219 0 0 1-32.98 3.09zm-14.08-2h.07a85.23 85.23 0 0 0 14 1c21.14 0 46.61-5.28 48.76-6.36v-.08l.22-.07c4.35-1.6 6.91-3.47 7.39-5.42a3.88 3.88 0 0 0-1.16-3.42.64.64 0 0 1-.23-.63 7.46 7.46 0 0 1 .68-2.32l-.33.13.47-.4a3 3 0 0 1 2.08-1.67h.06c24.22-9.52 29.74-15.65 30.86-18.46a2.59 2.59 0 0 0 .13-1.94l-.1-.22.1-.22.2-.42c3.63-8-3.06-22.43-3.13-22.58v-.1c-2.49-11.58-6.27-28.86-6.95-31.18l-1.38-.09 1.49-.8.35-.2a7.5 7.5 0 0 0 2.92-3.68 14.05 14.05 0 0 0 .81-2.7c1-4.9-.12-9.79-.68-10.17a.14.14 0 0 0 .09 0l-.08-1a6.3 6.3 0 0 0 3.77-4c1-2.56 1-5.74 1-8.06a13.84 13.84 0 0 1 .19-2.95 1.53 1.53 0 0 1 .23-.5l.05-.06h.07a12.21 12.21 0 0 0 4.89-6.19 14.13 14.13 0 0 0 .48-7.71l-80.6-5.35c.12 1.25.22 2.51.31 3.76 1.33 19.86-2.24 30.7-2.28 30.79a7.1 7.1 0 0 0 0 4.79 7.68 7.68 0 0 0 1.35 2.38l.19.21-.09.27-.31.94c-1.48 4.53-2.07 7-2 7.5l.07.14v.19a6.38 6.38 0 0 0-.16 1.24 7.62 7.62 0 0 0 2.26 5.61l-.58.76a12.87 12.87 0 0 0-3.81-1.78 4.39 4.39 0 0 0-.85-.09 2.1 2.1 0 0 0-2.12 1.71 10.9 10.9 0 0 0-.32 1.35 2.35 2.35 0 0 1-.44 1.22c-.85 17.65-11 39.79-14.87 48.15-.46 1-.87 1.89-1.1 2.42l-.17.58c-4.6 15.32-5.54 19.94-5.65 21.31l.35-.24-.06 1a28.17 28.17 0 0 0 1.22 6.69 37.55 37.55 0 0 0 2.35 6.93z" transform="translate(-88.92 -1)"/><path d="M384.46 1106.76s-17.95-27.68-51.24-4.7c0 0-7.72 4.87-1.54 12.29 1.53-.72 5.53 6.14.73 11.6-.76.36-14.69 21.3 26.65 22.81 1.52-.76 45.24 9.71 25.4-42zm4.54-55.1s-13.73 44.62-9.54 63.77c1.17-2.8 5.61 20 5.61 20s9.15 7.36 3.57-55.29c1-4.44 8.94-35.42.36-28.49"/><path class="cls-8" d="M332.1 732.5c0 1.64-.41 5.09-1 9.7-3.18 23.32-12.52 76.46-12.13 76-4.18 19.25-10.16 96.55-10.22 97.25-1 7.52.84 29 .41 28-.39 1.83-.73 3.83-1 6-3 22.43-.52 59.35-.94 58.88.18 1.76.32 3.45.43 5.08 1.26 18.88-2 30-2.24 30.6a7.62 7.62 0 0 0 0 5.15 8.35 8.35 0 0 0 1.45 2.54l-.33 1c-.71 2.18-2.32 7.29-2 7.87a7.06 7.06 0 0 0-.18 1.33l20.74-2.82 32.25-18.12 20.59 17.52a14.29 14.29 0 0 0 .83-2.79c1-5.06-.09-10.75-1.06-10.73h.09a6.8 6.8 0 0 0 4.07-4.27c1.56-4.06.8-9.47 1.24-11.06a1 1 0 0 1 .15-.33 12.68 12.68 0 0 0 5.08-6.43c1.75-4.91.24-9.74-.13-9.12 1.22-3.11 1.49-8.58 1.23-14.56a135.35 135.35 0 0 0-3.25-24.25c-.49-1.85-.92-2.87-1.22-2.66.25-.46.5-.93.74-1.43 9.23-18.69 12.69-61.22 13.14-60.73 5.59-13.92 6-39.37 6.26-49.88a35 35 0 0 1 .22-4.7c4.9-11.06 1.1-32.41 2.32-32.1.4-.78.83-1.8 1.29-3 4.07-10.57 10-34.77 9.94-33.5 2.89-5.86 6.73-23.49 13.29-59.49q1.73-9.48 3.72-20.71.86-5.05 1.77-9.78c4.77-24.45 10.9-42.06 15.41-52.9 1.29-3.11 2.45-5.67 3.42-7.67 1.72-3.59 2.79-5.39 2.79-5.39s-.37 2.79-1 7.51l-1 7.72c-4.29 32.08-13.89 103.64-14.26 103.43-1.46 15.71-.76 50.61.06 75.47v1.3c.51 15.15 1.05 26.27 1.13 26.46-8.13 11.31-12.9 58.42-12.48 59.63-4.48 10.07-3.53 31.24-2.86 43 .28 4.91.52 8.18.29 8.3a13.22 13.22 0 0 0-1.17 1.81c.12.58.27 1.18.45 1.79 0 0-.7 2.14-1.71 5.43-.77 1.22-1.56 2.4-2.36 3.56 0-.22 0-.74-.05-1.53-2.52 8.13-4.2 17.17-3.88 17-8.66 21.95.55 27.12.16 28.61a.3.3 0 0 1 0 .1c-6 3.37-6.6 7-6.3 9.64.2 1.81.81 3.12.28 3.47a4.61 4.61 0 0 0-1.13 1.42 9.4 9.4 0 0 0-.94 3.45c21.77 24.73 49.25 20.13 65.46 14.12a32.4 32.4 0 0 0 .94-6.61c.14-2.87-.06-5 .07-5.26a27.07 27.07 0 0 0 2.95-4.78c2.11-4.52 1.52-7.51 1-8.59-.12-.27-.25-.43-.31-.44 1.46-1.55 2.26-4.32 2.67-7 .59-4 .37-7.79.2-7.66 13.59-19.49 16.62-51.29 15.86-50.86 7.95-16.31 20.77-77.35 21.49-77.07.82-3.35 1.79-12.93 2.77-25.15.23-3 .48-6.12.71-9.37 2.4-32.5 4.69-75.43 4.88-75.89.13-4 1.33-10.85 3.06-18.92 5.17-24.1 15-58.84 15-58.84s24-58.88 23.24-58.22c3.4-10.17 5.79-22 7.47-34.29 1.1-8 1.88-16.2 2.44-24.22 1.23-17.47 1.37-34.16 1.24-46.51 0-4-.11-7.63-.18-10.61l-27.13-.4-59.81 6.72-61.61-25.47-61.07.45s-24.84 7.3-24.74 5.08c-9.86 6.66-6.36 38.41-6.36 38.41l2.73 35.07-7.27 18.09-12.33 13.51.73 1.37 3.73 72.1s1.54 44.92 1.77 45.17z" transform="translate(-88.92 -1)"/><path d="M303.77 1062.5v-.67a7.72 7.72 0 0 1 .15-1.27c-.11-.53.05-2 2-8v-.06l.23-.69a9.54 9.54 0 0 1-1.34-2.47 8.24 8.24 0 0 1 0-5.52c0-.09 3.49-11 2.2-30.36-.11-1.67-.26-3.36-.43-5l-.18-1.68.21.23c0-1-.07-2.53-.13-4.26-.38-10.88-1.25-36.34 1-53.31.29-2.17.64-4.19 1-6l.06-.26c0-.76-.11-2.9-.22-5.13-.34-6.58-.91-17.6-.26-22.57v-.7c1.46-18.38 6.5-79.64 10.17-96.59.05-1 .66-4.7 3.12-19.46 3-17.9 7.08-42.41 9-56.49.67-4.88 1-8.12 1-9.63-.15-1-.34-5-1-22.65-.41-11.13-.8-22.38-.8-22.49l-3.73-72-.85-1.62 12.75-13.85 7.19-17.87-2.73-34.94c-.14-1.29-3.42-32.15 6.61-38.92l.93-.63-.06.92a3.31 3.31 0 0 0 .58 0c4.73 0 23.26-5.46 23.45-5.51h.15l61.18-.44h.1l61.48 25.42 59.7-6.71 27.69.35v.54c.08 3.43.14 7 .18 10.63.16 16.72-.25 32.38-1.25 46.55-.6 8.64-1.42 16.8-2.44 24.25a192.71 192.71 0 0 1-7.48 34.43c-.11.68-.84 2.62-3.52 9.38-1.91 4.85-4.61 11.58-8 20-5.66 14-11.43 28.16-11.73 28.9-.34 1.21-9.95 35.22-15 58.72v.06c-1.91 8.88-2.94 15.21-3.06 18.82v.14c-.09.71-.48 7.22-1 15.43-1 15.92-2.38 40-3.88 60.34-.21 2.79-.43 5.68-.72 9.38-1.1 13.68-2 22.16-2.78 25.21l-.15.62h-.11c-.49 1.54-1.81 7.07-3.32 13.36-4.61 19.27-12.31 51.44-17.85 63 .24 1.66-.63 9.63-2.79 18.83s-6.13 22.07-13.07 32.12a31.34 31.34 0 0 1-.25 7.59c-.47 3.16-1.31 5.5-2.49 7l.1.19c.26.57 1.47 3.72-1 9.06a27 27 0 0 1-2.93 4.78v5.05a33.13 33.13 0 0 1-1 6.72l-.07.29-.27.1a72.25 72.25 0 0 1-25.06 4.79c-16.07 0-29.87-6.42-41-19.07l-.17-.18v-.25a10.07 10.07 0 0 1 1-3.66 5.49 5.49 0 0 1 1.26-1.58 4.72 4.72 0 0 0-.14-1.21c-.1-.5-.23-1.11-.31-1.78-.45-4 1.62-7.33 6.31-10a8.53 8.53 0 0 0-.54-.85c-2-2.93-6.59-9.77.4-27.59a30.81 30.81 0 0 1 1-5.72c.49-2.27 1.52-6.77 3-11.43l1-3.23.07 3.2q.69-1 1.35-2.07c.83-2.71 1.45-4.65 1.64-5.21-.17-.57-.3-1.13-.42-1.67v-.2l.1-.19a13.7 13.7 0 0 1 1.18-1.82c.07-.55-.07-3-.23-5.73 0-.7-.08-1.45-.13-2.24-.51-8.86-1.86-32.33 2.85-43.13-.11-2.19 1.22-14.67 3-26 1.94-12 5.14-27.52 9.43-33.68-.25-2.66-.83-17.68-1.12-26.27v-1.33c-.69-21-1.61-58.76-.05-75.51l.08-.86.1.06c.95-5.35 6-42.23 14.07-102.62l.61-4.59.42-3.14.6-4.51c-.38.75-.84 1.66-1.35 2.72-1.1 2.28-2.24 4.85-3.4 7.64-4.35 10.46-10.55 28.1-15.36 52.74v.22h-.05c-.61 3.15-1.19 6.37-1.72 9.57-1.26 7.07-2.51 14-3.72 20.71-6.79 37.23-10.53 53.95-13.34 59.65l-.1.2c-.21.68-.74 2.65-1.34 4.87-2 7.38-5.68 21.12-8.48 28.38-.48 1.23-.92 2.25-1.32 3l-.23.41c-.07.76 0 2.7.15 4.58.42 7.28 1.12 19.45-2.28 27.13-.09.37-.13 2.56-.17 4.5v.6c-.23 10.69-.76 35.72-6.29 49.48l-.07.16c-.11.58-.35 2.48-.62 4.64-1.41 11.25-5.16 41.12-12.44 55.91-.17.35-.33.67-.5 1a8.14 8.14 0 0 1 1 2.59v.14a136.5 136.5 0 0 1 3.22 24.35c.28 6.57-.1 11.38-1.11 14.33.61.89 1.53 5.18 0 9.58a13.21 13.21 0 0 1-5.19 6.63.64.64 0 0 0 0 .07 13.7 13.7 0 0 0-.16 2.69c0 2.4-.05 5.69-1.1 8.43a7.57 7.57 0 0 1-3.69 4.3c.87 1.66 1.47 6.37.61 10.64a15.44 15.44 0 0 1-.86 2.9l-.3.69-20.87-17.75-32 18h-.1zm1.26-2.22l.09.14-.05.22a5.54 5.54 0 0 0-.11.56l20-2.72 32.48-18.25 20.29 17.27a15.26 15.26 0 0 0 .53-2c1-4.85-.09-9.66-.65-10.09a.25.25 0 0 0 .14 0l-.09-1.12h-.05.05a6.23 6.23 0 0 0 3.73-3.95c1-2.55 1-5.72 1-8a13.32 13.32 0 0 1 .2-3 1.39 1.39 0 0 1 .24-.52l.06-.08h.08a12.08 12.08 0 0 0 4.86-6.15c1.46-4.09.55-8.05.16-8.55a.4.4 0 0 0 .3.12.48.48 0 0 0 .4-.21l-1-.5c1.07-2.71 1.48-7.67 1.2-14.33a136.56 136.56 0 0 0-3.2-24h-.06v-.16a13.16 13.16 0 0 0-.68-2l-1.64 1.04 1.16-2.1c.23-.42.45-.86.69-1.34v-.07c7.21-14.6 10.94-44.39 12.35-55.6.2-1.56.35-2.79.47-3.65a4.77 4.77 0 0 1 .35-1.58c5.4-13.6 5.93-38.35 6.15-48.93v-.61c.08-3.94.12-4.64.28-4.95 3.28-7.4 2.56-19.88 2.18-26.58-.25-4.31-.27-5.19.13-5.61l.1-.09c.36-.73.75-1.65 1.17-2.75 2.78-7.2 6.47-20.9 8.45-28.26l1-3.81a5.44 5.44 0 0 1 .6-1.71c2.75-5.82 6.46-22.51 13.13-59.1 1.21-6.68 2.46-13.65 3.72-20.72.54-3.27 1.14-6.56 1.77-9.79v-.2c4.83-24.66 11-42.33 15.4-52.82 1.17-2.81 2.32-5.39 3.43-7.69 1.71-3.58 2.77-5.36 2.81-5.44l1.38-2.31-.35 2.68-1 7.5-.42 3.14c-.19 1.41-.39 2.93-.61 4.55-2.33 17.39-5.7 42.56-8.59 63.73-1.64 12-2.94 21.47-3.88 28-.53 3.73-.94 6.6-1.24 8.54-.16 1-.28 1.81-.37 2.33a6.88 6.88 0 0 1-.19.84c-1.54 16.75-.62 54.37.07 75.32v1.27c.5 14.9 1 25.35 1.11 26.32l.1.22-.19.27c-4.18 5.82-7.36 21.14-9.28 33-2.18 13.33-3.24 25.12-3.11 26.17l.06.18-.09.2c-4.67 10.5-3.32 33.92-2.81 42.73 0 .79.09 1.54.13 2.24.34 5.8.33 6.29 0 6.52a13 13 0 0 0-1 1.47c.11.5.24 1 .4 1.54l.05.17-.06.16s-.7 2.14-1.68 5.35v.08l-.09.14c-.76 1.22-1.56 2.42-2.37 3.58l-.81 1.16a121.59 121.59 0 0 0-3 13.2l.41-.16-.47 1.2c-6.86 17.37-2.45 23.9-.57 26.69.55.82.89 1.31.75 1.85a1.33 1.33 0 0 1-.1.24l-.08.13-.13.08c-5.94 3.32-6.28 6.77-6 9.08a13.37 13.37 0 0 0 .29 1.67c.22 1 .39 1.87-.23 2.32a4.18 4.18 0 0 0-1 1.24 8.42 8.42 0 0 0-.85 3c10.89 12.28 24.35 18.51 40 18.51a70.86 70.86 0 0 0 24.4-4.63 32.09 32.09 0 0 0 .86-6.2c.07-1.54.05-2.83 0-3.77a5.06 5.06 0 0 1 .08-1.69v-.07a26.23 26.23 0 0 0 2.89-4.68c2.33-5 1.16-7.8 1-8.11a.65.65 0 0 0-.09-.17l-.79-.19.67-.71c1.17-1.24 2-3.55 2.51-6.7a35.43 35.43 0 0 0 .35-6.54l-2.18 1.71 2.47-2.99c6.84-9.81 10.81-22.55 12.94-31.51a108.28 108.28 0 0 0 2.93-18.15l-.84.46.78-1.59c5.49-11.26 13.24-43.65 17.87-63 2.45-10.24 3.16-13.18 3.6-14 .73-3 1.65-11.46 2.74-25 .29-3.68.51-6.57.71-9.35 1.5-20.35 2.94-44.41 3.89-60.33.73-12.38.89-14.92 1-15.55.12-3.66 1.15-10 3.06-18.95v-.06c5.12-23.84 14.94-58.53 15-58.88v-.06c5.69-14 19.57-48.13 22.62-56.32l.63-1.89a190.81 190.81 0 0 0 7.45-34.19c1-7.43 1.84-15.57 2.44-24.18 1-14.14 1.41-29.77 1.24-46.46 0-3.43-.09-6.81-.17-10.07l-26.58-.34-59.91 6.74-.13-.06-61.47-25.48-60.88.45c-1.47.43-18.9 5.53-23.68 5.54a2.6 2.6 0 0 1-1.24-.23c-9 7-5.75 37.28-5.71 37.58l2.71 35.23-7.36 18.3-12.12 13.29.59 1.14v.13l3.73 72.09c.41 11.87 1.5 42.49 1.74 44.94v.22c0 1.57-.37 4.77-1.05 9.77-1.92 14.09-6 38.61-9 56.51-1.27 7.61-2.4 14.43-2.89 17.57l.24-.29-.48 2.24c-3.66 16.88-8.7 78.08-10.15 96.44 0 .45-.06.7-.06.74-.64 4.88-.07 15.84.26 22.38.27 5.24.28 5.68.09 5.92-.36 1.72-.69 3.64-1 5.69-2.28 16.86-1.41 42.26-1 53.11a55 55 0 0 1 .1 5.78c.17 1.65.31 3.31.42 5 1.3 19.33-2 30.13-2.27 30.81a7.07 7.07 0 0 0 0 4.76 8 8 0 0 0 1.33 2.36l.22.24-.1.32-.31.92v.07c-1.36 4.48-1.93 6.96-1.93 7.48z" transform="translate(-88.92 -1)"/><path class="cls-6" d="M304.83 501.62c-.14 5.92 2.79 2.56 2.25 3.24-.07 1-.17 2-.29 3.06 8.09-3 21-4.23 38.74 5 .27-.24 12.8-7.16 12.8-7.16l29.1-.07 44.42-.31 32.38 14.16 45.23 6 74-3.15c-.07-3.06-.13-5.49-.17-7.17v-2.09a1.87 1.87 0 0 1 0-.52c2.94.44 9.24-1.76 8.78-2.26 5-.85 3.67-3.31 3.67-3.31s-3.32-13.5-2.54-14.16c5-3.36 11.16-10.28 15.12-15.42-17.84 10.42-41.08 22.06-58.44 23.92l-41.51 15.72-40.16-5.48-39.65-21.76-20.63-32.86-16.73-41.65v-43.34l4.26-40.23 5.94-23.24 7-56.37 7.83-9.61 1.69-8.89s-15.73-14.52-33.45-16.95c-1.64.85-4.88 2.65-5.51 3.84-8 1.84-7.33 6.63-7.36 7.1-4.77-2.81-9.6 5.66-9.76 6-6.37 3.15-20 35.42-20.06 35.89-5.13 6.77-2.49 30.9-2.52 31.37-7.38 7.34-3.78 16.59-3.86 17.77-4.46 4.2-1.88 13.86-1.88 13.86s.31 10.46-.68 10.63c-4.79 1.58-1.47 7.49-1.47 7.49s-2.07 5.31-1.81 5.09c-4.8 5.61-1 11.79-1.78 12.22 1.74 11.26-6 23.79-5.57 25.24-3.28 5-1 15.11-1.24 15.33-4.94 7.74-6.88 26.34-7.14 26.56-3.51 8.07-9.23 66.26-9 66.51z" transform="translate(-88.92 -1)"/><path d="M483.76 585.64s-63.18 42-108.84 27.11c.52.59-110.15-21.38-116.52-51.63-.51-.59 59.98 136.79 225.36 24.52z"/><path d="M408.92 820.37c4.07-10.57 10-34.77 9.94-33.5 2.89-5.86 6.73-23.49 13.29-59.49a234 234 0 0 0 5.49-30.49c4.77-24.45 10.9-42.06 15.41-52.9 1.29-3.11 2.45-5.67 3.42-7.67.58.74 1.17 1.44 1.79 2.12l-1 7.72c.69-2.44 1.34-4.7 1.94-6.75 1-3.63 1.91-6.61 2.56-8.83.85-2.9 1.32-4.48 1.32-4.48-.35-.5-.69-1-1-1.42-5.34-7-10.25-7.88-14.74-4.27a25.08 25.08 0 0 0-5.62 7.14c-.45.78-.89 1.61-1.33 2.48-4.68 9.32-8.81 23.52-12.4 40.1-.19.86-.38 1.74-.57 2.62-6.09 29-10.62 64.57-13.7 94.07-2.61 24.48-4.17 44.77-4.8 53.55zm-68.64-59.72c12.69 70.53 52.63 32.19 73.38 6.16 7.74-9.71 12.82-17.7 12.82-17.7q3.34-11.9 5.67-21.73a234 234 0 0 0 5.49-30.49c1.91-19.61-2.1-27-9.44-26.77h-.27c-5 .3-11.55 4.08-18.77 9.95-28.84 23.4-68.84 79.98-68.88 80.58z" transform="translate(-88.92 -1)"/><path d="M494.47 512l.52 35.33s-47.33-26.43-83.22-14.93c-1.1-.08-39.24-5.23-45.44-12.4-1.92 1-31.33-19-35-19.58 2-1.75-22.59-39.77-21.7-53.59-.74-.05-16 6.82-16 6.82l12.71-13.41-4.54-15.24-16.07 8.31 13.41-18.62-2.81-8.07-8.74 3.55 3.09-7.67s-22.27-16.14-31.6-14.5c-.35-.4 13.74-6.59 32.72 8.92-.79.7 1.12-5.93 1.12-5.93s-16.71-10.48-22.28-10.1c-.35-.4 8.36-3.58 23 4.15 0 .75-18.63-15.12-35.28-15.1.35.4 20.5-2.39 37.58 8.12-.69-.79.61-9.33.61-9.33s-34.16-21-52.13-17.72c0-.37-4.46-11.18 51.77 11.69 1.89-.63.69-4.83.69-4.83s-23.16-19.55 3.8-1.63c-.74-.05 2.51-16 .52-19.47.27 1.52-18.75-53.39-18.69-60.14-1.2 1.42-23.71-16.58-30.34 5.86.46-1.47-5.24-27.73 31.32-9.55-1.4-1.22 19.22 57.55 20.57 59.52-1.49.27 4.7 1.81 4.7 1.81s7.28-67.05 14.9-81.92c-.34-.4-12 71.61-9.87 84.13.4-.35 1.58 27.12 1.58 27.12s23.84 72.11 34.76 86.34c.64 1.55-38.9-56.6-43.19-93.28-2.06-2.39-1.56 64.43 11.48 91.55.27 1.52 30.9 42.95 42.83 47.12-.2-2.64-4.05-23.16 17.34-4.86-1.9.63 35.13 17.34 43.13 13.75-.44 1.09-48.16-44.84 5.79-3.75-1.42-.84 13.45-25 37-11 1 1.57 41.17-1.77 54.59-14.76-2.7 1.7-12.5 21.68-49 25.64-.36 0-20.29 10.66-20.29 10.66zm-159.55-153.12s9.31 44.89 18.41 53c-1.08-.45 10.49-13.56 13-24.28.42-.72-2.46 55.37 1.14 68.36-.71-.42 14.67 42.25-5.73 14.25-1.47-.09-16.77-26.62.39-6 0-.38-4.13-22-13.47-32-.73.32-30.5-42.93-13.74-73.33zm40.3 40.57s10.11-24.84 39.31 15.74c-.35-.4 31.85 22.37 58.88-18.23.35.4 17.17-19.5 21-9.86-.16 2.61-11.79-6.41-18.43 27.66-.71-.42-12.9 50.92-13.4 1.36-1.13.3-27.65 21.43-55.28-3.29-.1 1.49 41.78 92.07-1.36 9.67.32.77-30-51.14-11.25-3.38-1.15.3 54.3 127.04-19.47-19.67zm121.27-67.74s19.5-55.73-21.52-50.58c1.81.5-32.58 6.1-48.59 7.66-1.47-.1-33.25-.71-36.64.2 1.5-.28-15.63 7.21-16.74 1.51.32.77 8.22-24.21-10-5.54 0 0-16.66 11.65-18.27 19.42.54-2.59.49-59.24-7.82-73.68-.13 1.87 4.85 73.86 2.28 79.32-.4.35 11.31 19.51 14.81 22.74-1.8-.87-22.23 40.54-.14 7.87 1.74 1.61 7.88 21.16 3.26 35.48 0 .37 6.29 22.93 7.68-21.62 1.45.47-2-20.77-7.28-30.5 0-.37-8-12.92-8.2-16.3-1.22 1.79 7.06-17.54 11.48-17.25-1.5.28 5.88-5.24 8 1.29-1.18 1 25.31 95.09 6.34 4.92-.41.72 24.45-6.26 36.51-4-.32-.77 35.53-.26 42.06-4 .07-.29 52.67-18.56 42.78 43.06zm-39.13-133.16s33.66 57.39 4.27 2.54c-.41.72.97-9.32-4.27-2.54zm8.59-1.3s14.22 26.08 15 36.64c0-.38 19.89 35.83 4.51-6.83-1.87.62-13.57-30.17-19.51-29.81zm1.13-5.93s21.25 3.29 21.39 18.3c-.28-1.52 25.19-12.21-21.39-18.3zm50.38 38.99c-.39.34-6.57 32.95-6.57 32.95s-2.79 66.22-11.89 75.37c-.83 1.44 1.31 8.34 1.31 8.34s6.64-22.14 12.06-44.27c2.07-25.92 3.2-50.62 3.19-50.62 1.12-3 4.18-15.69 6.29-25 .24-22.33-3.08-46.84-18.92-52.53 0 .02 21.41 17.94 14.53 55.76z"/><path d="M573.33 164.58c36.78-5.76 42.88 28.13 43.49 46.91a37.71 37.71 0 0 0 2.94-13.25c-11.68-53.97-45.59-33.93-46.43-33.66z" transform="translate(-88.92 -1)"/><path d="M525.89 174.21s-11.5-28.15-40-16.16c-.05.38 22.76-26.25 40 16.16zm-46.81-19.21s17.37-28.48 46-7.82c-.69-.8-3.74-28-39.51-6.75-.44.32-10.39 11.29-6.49 14.57z"/><path d="M580.46 122.66c6.18-6.86 15.7-.81 17.31-.71-13.24 1-11.11 7.88-10.81 9 16.91-5.41 30.59 7.8 34.77 12.47-.6-5.5-1.41-9.67-1.41-9.77a6.34 6.34 0 0 0 2.46-7.37c-1.14-1.1-2.12-1.6-2.12-1.72 5.56-11.64-.29-58.55-1-59-16.48-2.56-16.4 42.11-15.66 42.9 6.58 1.19 11 12.37 11 12.74-20.62-13-11-1.48-10.31-.68-23.78-10.58-24.62 2.48-24.23 2.14z" transform="translate(-88.92 -1)"/><path class="cls-4" d="M488.98 37.13l.88 5.52 2.29 2.76s4.27 2.65 5.94 3.47l6.18 3.5s.09.47.16 1.11l.5.15c-.87-5.55 5.26-12.65 4.31-13.22-5.23-3.09-1.76-7.11-1-7.06 7.85-3.23 2.31-9.11 1.82-9.14-3.64-1-7.53-9.5-7.26-9.74.09-5.24 6.32-6.33 7.06-6.28 2.53-1.08 13.08-.13 13.09-.38-1.16-4.83-5.22-3.1-6-2.9-2.79 1.07-7-2.21-7-2.21-3.21 0-7 5.78-7.54 6-3.7-2.7-8 0-10.47 2.23-.2 3.55-1.71 14.42-1.71 14.42s3.57 9.72 3.26 10.65c-2.16-.86-4.51 1.12-4.51 1.12z"/><path d="M419.39 209.79l-9.31-23.13s-6.43-14.93 7.52-1.75c-1.45-.6 13.68 28.67 13.68 28.67s-8.39-4.58-11.89-3.79zm-42.05-24.79l-15.35 27.74-10.06-.91s13.72-29.12 25.41-26.83zm-44.78 44.29s-19.85-21.08-35.64-13.37c.55-1 28.78 12.66 29.92 21.74.65 1.34 4.81-1.93 5.72-8.37zm-4.09 2.23s2.14 8.9-6.91 3.79c.46.53-42.15-23.3-23.21-3.29 0 .5 10.18 25.69-4.16 3.23 1.18.83-13.42-9.9-5.6 6.63.49 0 7.92 56.8-2.85 17.32.43 1-18.42-62.25-4.43-.05.18 1 4.43 15.31-3.26.79-.1 1.49-10.59-.2-.63 6 .46.53 8.28 1.55 14.76 19.74.27-.48 19.25-11.73 16-26.95.05-.75 9.43-8.63 5.44 7.36-.47-.28-2.84 74.6-16.9 36.4 0 .5-11.82-15.54-3.74 4.5.47.28 14 31.45 14 31.45l3.84-2.25 1.82-31.9 7.34-48.78s13.1-11.68 8.49-23.99zm18.34 273.84s-82.92-3-89.52 7.57c-.15-1.51-.47-8-.47-8s53.45-14.25 89.99.43zm-59.22-95.22s-17.59 58.61-23.14 68.25c.54-.72-17 34.14-6.33 21.59 0 .5-.94 6.94-.94 6.94s17.34-1.1 8.92-12.17c.53-.46.78-4.45 6.38-3.32.3-.74 6.52-1.57-1.73-11.37-.06 1-1.94-8.14 6.73-4.81-.25 0 6.6-6.82-1-15.32-.62-1.8 8.8-6.42 10.66-12.3 0 0-10.49 5.8-6.27-2.17-.52.47 13.43-28.37 6.72-35.32zm-31.18 104.98l.88-2.19s-29.15-10.69-36.3-6.91c0 .25-2.43-.66-2.43-.66s16.77-7.65 39.39 4.86c.23.27 6.57 1.44-1.54 4.9zm-2.27 4.6s-2.91 18.32-5 20.18c-.73 0-2.64 10.33-2.68 11.08l1.62 20.12s20 14.34 31.5 16.35c-.44-.78-18.92-20.27-22.41-35 .26.26 14.57-30.31-3.03-32.73z"/><path d="M325.77 613.66l.83 1.57 3.73 72.1s1.54 44.92 1.77 45.17c0 1.64-.41 5.09-1 9.7 12.76-12 10.4-55.26 11.1-54.71-10.33-29.86 4.58-21.23 4.86-20.92 26.24 21.25 8-5.47 8-5.47s-17.86-19.36-18.21-19.72c42.51 27.62 24.42 9.86 24.15 10.62-35.26-23.1-14.16-25.2-12.69-25.1-11.51-12.77 1.64-13.9 2.19-14.86-2.41-8.41.81-12.45 1-12.19 3.77-4 3.83-11.29 3.18-16.8a53 53 0 0 0-1.38-7.34c-10.2-13.93-16.44-5.09-16.29-3.58 1.68 12.12-.06 16.25-1.59 16.9-.23 3.66-2.41 8-4.43 11.2a53.15 53.15 0 0 1-3.52 5c.53 1.07.17 3.07-.52 5.23-.32 1.06-.74 2.16-1.18 3.2zm-41.35-28.97c1 3.86 4.72 7.19 5.75 6.55-.18 2.83 5.82 9.16 6.57 9 1.61 5.56 11.53 8.59 12.28 8.41.84 4.11 3.18 5.5 5.79 5.62 1.88-4.4 6-10.8 12.16-3.78l.86 1c0-.49 8.85-15.81 9.18-16.38a14 14 0 0 1-6 5.07 10 10 0 0 1-6.67.32c-.5.22-11.18 1.26-11.71 5.73-.23-.27-1.24-7.59-1.24-7.59l-2.8 9.07s-5.69-3.63-4.88-8.58c-1 .68-9.63-3.64-7.06-9 .13-.24 3.26-10.59-3.31-2.22-.72-.3-6.42.07-6.36-4.68-1.19 1.49-6.33-5.84-6.21-12.86-.1.16-.14.25-.13.27-3.64 11.18 3.36 13.36 3.78 14.05z" transform="translate(-88.92 -1)"/><path d="M229.08 591.34l4.38-6.71s4.78-5.18-3.11-1.46c-.24 0-3.73-3.24-3.49-7-.05.75-2.34-9.66-5.36-4.86-1-.06 5.08 5.34 2.56 9.93-.28 0 7.81 4.54 5.02 10.1zm46.55-140.98s-20.67-19.88-32.65-13.92c-.5.22 29.39 11 30.62 18.54-.01.25 3.7.02 2.03-4.62zm-2.81 9.07s-10.64-11-26.11-12c-.08 1.24 23 6.28 23.36 20.3zm6.79 128.02s75.56 49.22 29.3 112.57c.14-2.25 4.25 37.42 4.25 37.42l22.54-57 19.53-61.74z"/><path d="M585.17 575.31v.6a.8.8 0 0 0 0-.6zm-142.17 249.75a2 2 0 0 0-.17.23l.21 1.07c2.76 13.59 7.47 22.85 14.88 25 12.32 3.64 32.1-12.22 62.8-60.06-.3-.35 5.38-14.8 13.48-36.33 5.17-24.1 15-58.84 15-58.84s24-58.88 23.24-58.22c3.4-10.17 5.79-22 7.47-34.29 1.1-8 1.88-16.2 2.44-24.22a83 83 0 0 1-13.72 9.88c-3.34 2-7.19 4.14-11.56 6.34h-.07a282.64 282.64 0 0 1-47.65 18.38c-10.89 3.17-23 6.13-36.31 8.67l-.89.17c-3.29.62-6.66 1.22-10.11 1.78l-6 1s-.32 1.83-.87 5.17l-.52 3.11c-.45 2.76-1 6.15-1.6 10.08 1.29-3.11 2.45-5.67 3.42-7.67.58.74 1.17 1.44 1.79 2.12l-1 7.72c-4.29 32.08-13.89 103.64-14.26 103.43-1.46 15.71-.76 50.61.06 75.47z" transform="translate(-88.92 -1)"/><path d="M300.3 1001.14v-1.39c-.09.84-.09 1.32 0 1.39z"/><path d="M386.18 974.86c1.33 10.87 2.92 20.42 3 25.89 0-.45.12-1 .21-1.64a135.35 135.35 0 0 0-3.21-24.25z" transform="translate(-88.92 -1)"/><path d="M288.69 908.65c.79-.71 4.93 33.36 8.08 61.11 9.23-18.69 12.69-61.22 13.14-60.73 5.59-13.92 6-39.37 6.26-49.88-12.27-5.66-38.15-11.28-27.48 49.5z"/><path d="M428.43 967.34s-.7 2.14-1.71 5.43a138.64 138.64 0 0 0 12.4-26.24c11.17-30.73 16.4-68.82 18.83-95.13 1.72-18.67 2-31.42 2-31.42-6.87-3.37-12.44-1.07-16.94 5.07a2 2 0 0 0-.17.23l.21 1.07c.51 15.15 1.05 26.27 1.13 26.46-8.13 11.31-12.9 58.42-12.48 59.63-4.48 10.07-3.53 31.24-2.86 43 .28 4.91.52 8.18.29 8.3a13.22 13.22 0 0 0-1.17 1.81c.14.58.29 1.18.47 1.79zm-16.17 59.46a12.14 12.14 0 0 0 2 3.4c1.88 2.41 5.41 5.63 11.75 8-.67 0-5.28 1.3-7.6 4.23s-2.34 7.34 5.78 13.68c.67 1 38.38 5.3 40.58 1.69 0 0-28.47-2.14-29.93-10 0 0 34.61 6.57 44-1.75.14-2.87-.06-5 .07-5.26a27.07 27.07 0 0 0 2.95-4.78 51 51 0 0 1-42.13 4.36c-.48-.28 26.78.28 29.18-5.29-.57.55-29.82 2.87-33.08-7 1.16-.16 36.94 8.11 47-.69-.12-.27-.25-.43-.31-.44 1.46-1.55 2.26-4.32 2.67-7a68.76 68.76 0 0 0-10.39 3.51c-.29.73-36.4 6.08-40.13-8.67.16 1.26-13.8-34.68 12.81-18.91 1.46.35 26.5-1.74 33.73-18.27.22.52 4-12-23.1 6.47.55-1-23.54 16.95-19-37.53a17.71 17.71 0 0 0-10.26 8.91c.28 4.91.52 8.18.29 8.3a13.22 13.22 0 0 0-1.17 1.81c.12.58.27 1.18.45 1.79 0 0-.7 2.14-1.71 5.43-2.58 8.44-7.17 24.47-7.09 31.49.75-.2 2.83 13.45 9.29 16.63 0 .54-3.57 4.07-8.33-.44-1.75-1.65-3.66-4.38-5.63-8.74-.56 1.2-2.69 15.07-2.69 15.07z" transform="translate(-88.92 -1)"/><path d="M432.08 849.93s-15.37 43.25-33.3 76.57c-.2-.76-13.2 51.65 14-7.07-.25.73 39.36-85.68 19.3-69.5zm-134.11 170.74l.06-.06q-.16-.04-.06.06z"/><path d="M302.76 1066c1.4 1.52 4.72 2.32 4.72 2.32 2.69 1.94 6.52 1.15 10.35-.67 1.05-.5 2.1-1.07 3.13-1.69a89.32 89.32 0 0 0 10.87-8.22c30.25-29.25 41.52 2.51 41.52 2.51q.76 1.14 1.47 2.1c2.19-1.35 3.38-3.92 3.93-6.69-5.83-1.24-10.43-9.25-10.43-9.25 1.75-3 5.85-2.6 9.46-1.51a6.8 6.8 0 0 0 4.07-4.27c-7.56-5.85-3.69-9.08-3.69-9.08l4.93-2a1 1 0 0 1 .15-.33 12.68 12.68 0 0 0 5.08-6.43 12.85 12.85 0 0 1-1.44-1.12c-9.74 10.27-10.47 2.5-10.24 2.76 11.06-7 5.42-41.91 5.19-42.17-12.74-66.38-9.45-2.63-8.68-3.08-16.61 82-56.25-22.7-56.26-22.5-4-7.3-6.86-9-8.8-7.28-3 22.43-.52 59.35-.94 58.88.18 1.76.32 3.45.43 5.08a34 34 0 0 0 8 13.26c17.91 1.44 2.65 8.68 2.63 8.93a36.39 36.39 0 0 0-12.84 13.56c-1.32 2.47-1.8 4.13-2.11 4.21a6 6 0 0 0 3.23-.68c4.61-2.19 9.21-8.66 9.18-8.25 8.73-10.32 46.28-13.83 46.29-13.94 14.11-1.06 5.51 6.12 4.48 6.8-6.83-1.2-26.69 4.73-26.48 5.25-10.44 12.81-29.22 17.07-29.43 16.55a30 30 0 0 0-6.19 2.79c-2.6 1.71-2.56 3.1-1.58 4.16zm115.41 18.18a10.24 10.24 0 0 1 1.12 3.24c-.14-9.76-.51-27.71 4.89-31.32-.7-.95-2.78-7.74-5.78-13.68a26.36 26.36 0 0 0-5-7.33c-2.33 4.35.24 12.78-1.52 12.87-6.81 17.57 5.39 34.98 6.29 36.22z" transform="translate(-88.92 -1)"/><path d="M192.08 1156.84c22.93 3.89 62.93-4.6 63.24-5.53 12.63-4.61 6.06-9.79 6.3-9.78.49-3.76 2.74-4.08 2.47-3.86 35.17-13.79 31.67-20.67 31.45-21.16l.22-.44c-5-6.41-16.87-13.91-43.63-3.21-.05.75-26.25 20.77-32.36 27.62.95.31-22.2 15.16-27.69 16.36zm-.24-.01c.09.11.18.11.23 0s-.08-.06-.23 0z"/><path d="M285.27 1144.92l-8.31-1.1a28.49 28.49 0 0 0 1.23 6.84z" transform="translate(-88.92 -1)"/><path d="M188.08 1142.82s21.86-14 33-25.52c0-.25-12.73 2.41-5.45-14.87-.92-1.06.54-12.22 5.66-18.88 0-.5 9.46-14.75 10.84-18.61.54-1.52-.15-1.44-3.13 1.69-.85.9-1.89 2-3.13 3.46 0 0-10.7 2.08-15.46-3.18-.41 1.22-.39 2.52-.77 2.4-.93 22-16.9 51.76-16.14 51.34-1.97 6.27-7.01 23.25-5.42 22.17zm164-967.94z"/><path d="M442.58 163.16c3.22 6.44-1.08 12.39-1.53 12.71a8.32 8.32 0 0 0 2.11 2.39c2.61 1.72 3.11-3.5 3.11-3.5l6.13 4.31-1.26 2.58-1.58 3.23 2.23-1 4.12-1.84-2.69 7.33 5.44-4.14.61 2.58.94 4 6.05-5.85-.55 8.47 3.62-2.51.38 5.53 7-5.54-.42 6.47 4.86-6.43-.37 5.73 5.89-7.36.85 6.06 4.3-5.47 1.35 5.84 2.83-5.75 2.33 5.9.4-6.22 1.3-.26 7.38-1.5 1.57-.31 7.52-2 3.26-1.85c.77-2.79 2.11-7.61 2.33-8.26 2.09 5.83 6.49 2.57 6.75 2.35-6.11-4.74.21-10.92.74-11.39 3-4.8 1.56-8.9 1.29-8.66-.19-.77 1.07-8.91 1.07-8.91l-1.37-1.62 3.29-1.28-2.81-2.44 4.4-1.21-3.6-3.49 4.83-2.3-4.25-2.78 4.85-2.56-5-1.08 3.63-2.76s-4.22-1.53-3.63-3l5.37-2.9-6-.4 6.4-1.7-6.91-3.71 8.33.8-8.93-5 5.07-2-5.49-2.86 3-3.18-4.1-1.39 4.2-2.1-6.63-2.32 3.76-2.87-5-1 2.28-3.74h-3.82l3.9-5-6.18.22 2-9.25-5.41 5.52 1.67-10.65-5.28 7.41.43-8.6-4.3 5.46-.09-8.26-2.84 5.82-.7-6.3-3.65 5-.17-8.77-5.47 8.27-1-9.07-4.08 7.85-.13-9.51-3.36 8.16-1.45-7.3-2.13 8.24-3.09-9.46-1 9.69-3.67-10-.5 11.6-3.44-9.73-2.32 11.1-4.67-11.69.23 9.77-3.28-6.52.33 8.27-5.38-6.48 1.34 6.09-5.3-4 2.11 9.4-6.93-3.67 3.36 7.39-7.52-3.75 4.73 7-7-2.22 5.4 6.24-6.11-1.27 4.19 5.78-4.09.35 2.26 3.16-4.71.43 2.85 3.7-5.08.28 4.07 3.78-4.7.18 4 3.52-3.25.78 2.77 4.81-4.4 1.21 3.79 2.51-2.88.56 2.49 3.54-3.51.89 4 3.64-4.75 1.88 4.78 2.32-5.75 3.12 7.44.74h.28l-.27.27-2.39 2.28 2.1 3.26.35.56s-2.11 6-3.09 5.89c-.54 5.22 3.46 15.74 3.22 15.72zm23.25 481.59c-.06 0-.13-.08-.2-.13a.77.77 0 0 0 .2.13zm119.34-69.44v.6a.8.8 0 0 0 0-.6zm-167.77-5.83c0 .31 35.43 38.54 41.75 43.44 3.8 3 8.31 6.4 13 10l3.57 2.71 3.72 2.82c13 9.82 25.1 18.89 25.1 18.89l62.19-35.34s5.78-3.17 13.24-8.38c1.1-8 1.88-16.2 2.44-24.22 1.23-17.47 1.37-34.16 1.24-46.51l-1.14-.44c-11.21-4.32-26.08-8.17-45.43-11.34a82.47 82.47 0 0 1 .76 12c0 23.78-39.43 39.6-110.42 37q-4.82-.11-10.02-.63z" transform="translate(-88.92 -1)"/><path class="cls-4" d="M505.61 46.94c4.48-6.27 7.3-6 17.1-3.12 14.91 6.54 12.75-3.89 15.06-5.63 1.5-6.66.16-14.49-1.31-20.08-1.87-4.59-3.9-7.49-3.88-7.78-2.23-5.58-6.18-1.72-6-1.52-1.89.63-5.93-2.64-5.93-2.64-16.79-.74-19.6 7.45-19.78 7.44 1.18 8.45 3.56 5.92 3.67 7.06-5.27 4.15.91 25.88 1.07 26.27z"/><path d="M470.75 342.46a24.92 24.92 0 1 0 26.49-23.57 25.14 25.14 0 0 0-26.49 23.57z" transform="translate(-88.92 -1)"/><path class="cls-5" d="M473.82 340.78a22.7 22.7 0 1 0 24.18-21.47 22.92 22.92 0 0 0-24.18 21.47z" transform="translate(-88.92 -1)"/><path d="M503.47 352.38a1.49 1.49 0 0 1-.42 0 .85.85 0 0 1-.36-.17.66.66 0 0 1-.19-.42 3.7 3.7 0 0 1-.23-1 4.62 4.62 0 0 1 0-.84 3.17 3.17 0 0 1 .19-.72 6.32 6.32 0 0 1 .27-.65 4.22 4.22 0 0 0 .54-.36l.52-.43.5-.44.45-.43c.5-.45 1-.88 1.5-1.31l1.49-1.24c.49-.4 1-.81 1.43-1.22a14.24 14.24 0 0 0 1.34-1.35 11.52 11.52 0 0 0-1-.93c-.37-.3-.76-.58-1.16-.85s-.83-.52-1.26-.77l-1.3-.75c-.43-.26-.87-.53-1.29-.81s-.85-.58-1.24-.9a10.84 10.84 0 0 1-1.13-1 8.69 8.69 0 0 1-1-1.24c0-.19.08-.4.12-.64a7 7 0 0 1 .15-.69 2 2 0 0 1 .19-.53c.08-.14.17-.19.28-.16a1.91 1.91 0 0 1 .5-.21 1.56 1.56 0 0 1 .48 0 2.36 2.36 0 0 1 .94.26 3.75 3.75 0 0 1 .44.24l.43.28.4.26a3.23 3.23 0 0 0 .41.22l2.77 1.87c.91.61 1.81 1.21 2.69 1.82l2.65 1.78c.88.58 1.77 1.15 2.66 1.69l.22.3a1 1 0 0 1 .11.23.33.33 0 0 1 0 .19.7.7 0 0 1-.06.17l-12.69 10.78zm-3.11 0a3.32 3.32 0 0 1-.44.06.79.79 0 0 1-.38-.08.43.43 0 0 1-.21-.35 7.64 7.64 0 0 1-.59-1.14c-.17-.41-.32-.82-.47-1.22s-.28-.8-.43-1.18a8.5 8.5 0 0 0-.47-1.05c-.28-.75-.56-1.48-.85-2.19s-.59-1.42-.9-2.11l-.93-2.06c-.31-.69-.61-1.37-.9-2.06s-.59-1.37-.88-2.06-.56-1.4-.82-2.12-.52-1.44-.75-2.18-.46-1.5-.65-2.27a1 1 0 0 1 .26-.49 1 1 0 0 1 .39-.24 1.23 1.23 0 0 1 .47 0 1.76 1.76 0 0 1 .49.16 9.85 9.85 0 0 1 .58 1l.53 1.06.51 1q.25.5.51.9a5 5 0 0 0 .17.74 6.09 6.09 0 0 0 .22.61c.08.19.16.37.25.54l.26.49.27.47s.16.33.23.51a4.61 4.61 0 0 1 .2.56 3.87 3.87 0 0 1 .14.68c.32.62.63 1.26.93 1.94l.86 2 .83 2s.54 1.2.82 1.71a5.09 5.09 0 0 0 .22.75c.09.24.18.46.27.67l.27.61.28.59.26.57a5.77 5.77 0 0 1 .22.58 3.62 3.62 0 0 1 .16.63q.06.34.09.69c0 .13-.07.26-.1.38l-.12.35a1.77 1.77 0 0 1-.15.31.88.88 0 0 1-.24.23.94.94 0 0 0-.41.01zm-24.27-7.97a2 2 0 0 1 .21-.63 2.81 2.81 0 0 1 .35-.5 3.32 3.32 0 0 1 .43-.41l.51-.36.52-.36a4.61 4.61 0 0 0 .5-.4c.16-.15.31-.3.45-.46a2.61 2.61 0 0 0 .34-.56 9.06 9.06 0 0 1 .82-.74c.33-.25.68-.51 1.06-.77l1.14-.8a12 12 0 0 0 1.07-.82c.37-.33.74-.65 1.12-1s.76-.61 1.14-.9.77-.61 1.15-.92.75-.65 1.11-1a1.82 1.82 0 0 1 .61-.2 1.36 1.36 0 0 1 .57 0 1.17 1.17 0 0 1 .46.26 1.32 1.32 0 0 1 .33.49 2.6 2.6 0 0 1 .28.72 2.06 2.06 0 0 1 0 .64 1.66 1.66 0 0 1-.13.5 1.61 1.61 0 0 1-.24.36c-.5.49-1 1-1.53 1.42l-1.52 1.37c-.5.45-1 .91-1.47 1.36s-.94.93-1.38 1.42a3 3 0 0 0-.61.32c-.2.13-.39.27-.57.41a4.06 4.06 0 0 1-.52.36 1.51 1.51 0 0 1-.52.2.82.82 0 0 0 0 .35 1.14 1.14 0 0 0 .07.34.41.41 0 0 0 .19.22.4.4 0 0 0 .29 0c.39.27.77.53 1.17.78s.79.48 1.19.7l1.21.65c.41.21.8.44 1.19.67s.78.48 1.16.73.75.54 1.11.84a13.43 13.43 0 0 1 1 1 9.91 9.91 0 0 1 1 1.15v.84a2.29 2.29 0 0 1-.12.68 1.56 1.56 0 0 1-.28.51 1.54 1.54 0 0 1-.49.37z" transform="translate(-88.92 -1)"/><path class="cls-5" d="M429.56 220.83s-20.63-72.49-61.53-25c1.14-2.07-7.28 5.43-7.28 5.43s41.75-65.59 70.48 12.33c0-.01 2.57 10.33-1.67 7.24z"/></svg>